<?xml version="1.0" encoding="UTF-8" standalone="no"?>
<!-- Created with Inkscape (http://www.inkscape.org/) -->

<svg
   width="30.48mm"
   height="128.5mm"
   viewBox="0 0 30.480002 128.50002"
   version="1.1"
   id="svg8"
   inkscape:version="1.2.2 (732a01da63, 2022-12-09, custom)"
   sodipodi:docname="ToKeyframes.svg"
   xmlns:inkscape="http://www.inkscape.org/namespaces/inkscape"
   xmlns:sodipodi="http://sodipodi.sourceforge.net/DTD/sodipodi-0.dtd"
   xmlns="http://www.w3.org/2000/svg"
   xmlns:svg="http://www.w3.org/2000/svg"
   xmlns:rdf="http://www.w3.org/1999/02/22-rdf-syntax-ns#"
   xmlns:cc="http://creativecommons.org/ns#"
   xmlns:dc="http://purl.org/dc/elements/1.1/">
  <defs
     id="defs2" />
  <sodipodi:namedview
     id="base"
     pagecolor="#ffffff"
     bordercolor="#666666"
     borderopacity="1.0"
     inkscape:pageopacity="0.0"
     inkscape:pageshadow="2"
     inkscape:zoom="1.3993369"
     inkscape:cx="30.014216"
     inkscape:cy="281.20462"
     inkscape:document-units="mm"
     inkscape:current-layer="layer2"
     showgrid="false"
     units="mm"
     inkscape:snap-bbox="true"
     inkscape:snap-page="true"
     inkscape:bbox-nodes="false"
     inkscape:snap-bbox-edge-midpoints="false"
     inkscape:window-width="1920"
     inkscape:window-height="1136"
     inkscape:window-x="0"
     inkscape:window-y="0"
     inkscape:window-maximized="1"
     inkscape:snap-bbox-midpoints="true"
     inkscape:snap-nodes="false"
     inkscape:showpageshadow="2"
     inkscape:pagecheckerboard="0"
     inkscape:deskcolor="#d1d1d1" />
  <metadata
     id="metadata5">
    <rdf:RDF>
      <cc:Work
         rdf:about="">
        <dc:format>image/svg+xml</dc:format>
        <dc:type
           rdf:resource="http://purl.org/dc/dcmitype/StillImage" />
        <dc:title />
      </cc:Work>
    </rdf:RDF>
  </metadata>
  <g
     inkscape:label="Layer 1"
     inkscape:groupmode="layer"
     id="layer1"
     transform="translate(0,-168.49998)">
    <rect
       style="font-style:normal;font-variant:normal;font-weight:normal;font-stretch:normal;font-size:4.93888855px;line-height:6.61458302px;font-family:'Gotham Rounded';-inkscape-font-specification:'Gotham Rounded';font-variant-ligatures:normal;font-variant-caps:normal;font-variant-numeric:normal;font-feature-settings:normal;text-align:center;letter-spacing:0px;word-spacing:0px;writing-mode:lr-tb;text-anchor:middle;display:inline;fill:#e6e6e6;fill-opacity:1;stroke:none;stroke-width:0.64935839;stroke-linecap:butt;stroke-linejoin:miter;stroke-opacity:1;opacity:1;vector-effect:none;fill-rule:evenodd;stroke-miterlimit:4;stroke-dasharray:none;stroke-dashoffset:0;paint-order:normal"
       id="rect420"
       width="30.48"
       height="128.5"
       x="5.9211732e-17"
       y="168.49997" />
    <g
       aria-label="My Module"
       style="font-style:normal;font-variant:normal;font-weight:normal;font-stretch:normal;font-size:4.93889px;line-height:6.61458px;font-family:'Gotham Rounded';-inkscape-font-specification:'Gotham Rounded';font-variant-ligatures:normal;font-variant-caps:normal;font-variant-numeric:normal;font-feature-settings:normal;text-align:center;letter-spacing:0px;word-spacing:0px;writing-mode:lr-tb;text-anchor:middle;display:inline;fill:#000000;fill-opacity:1;stroke:none;stroke-width:0.264583px;stroke-linecap:butt;stroke-linejoin:miter;stroke-opacity:1"
       id="text1229">
      <g
         aria-label="To  Key Frames"
         id="text295"
         style="font-size:9px;line-height:8.325px;font-family:'Annapurna SIL';-inkscape-font-specification:'Annapurna SIL';text-align:start;text-anchor:start;display:inline;fill:#00ff00;stroke-width:0.0700043px">
        <path
           d="M 6.655521,225.94647 H 6.1765171 l -0.1142578,-0.76025 q -0.026367,-0.14063 -0.1362305,-0.14063 H 4.7658726 v 4.48243 q 0,0.16699 0.1713867,0.18017 l 0.5185547,0.0308 v 0.34717 H 3.2585484 v -0.34717 l 0.5185547,-0.0308 q 0.1713867,-0.0132 0.1713867,-0.18017 v -4.48243 H 2.7795445 q -0.1142578,0 -0.1362305,0.14063 l -0.1098633,0.76025 H 2.0632359 v -1.29638 H 6.655521 Z"
           style="fill:#ff6600"
           id="path277" />
        <path
           d="m 10.913822,228.13934 q 0,0.87891 -0.522949,1.45459 -0.5405277,0.58887 -1.4150395,0.58887 -0.8701172,0 -1.4018554,-0.58447 -0.5141602,-0.5669 -0.5141602,-1.45899 0,-0.8833 0.5229492,-1.45898 0.5405274,-0.59326 1.4238282,-0.59326 0.8789062,0 1.4062497,0.59765 0.254883,0.28565 0.37793,0.65039 0.123047,0.36036 0.123047,0.8042 z m -0.839356,-0.009 q 0,-0.7163 -0.2680661,-1.16894 -0.290039,-0.50977 -0.8085937,-0.50977 -0.5361328,0 -0.8261719,0.50977 -0.2636719,0.45703 -0.2636719,1.16894 0,0.71631 0.2680664,1.17334 0.2900391,0.51416 0.8085938,0.51416 0.5317383,0 0.8217773,-0.50976 0.2680661,-0.45703 0.2680661,-1.17774 z"
           style="fill:#ff6600"
           id="path279" />
        <path
           d="M 7.0993687,238.41112 H 5.6799351 v -0.25049 l -1.5073242,-2.16211 h -0.5625 v 1.85449 q 0,0.167 0.1757812,0.18018 l 0.4614258,0.0308 v 0.34717 H 2.1906773 v -0.34717 l 0.430664,-0.0308 q 0.1669922,-0.0132 0.1669922,-0.18018 v -4.31982 q 0,-0.1626 -0.1669922,-0.17578 l -0.430664,-0.0308 v -0.35156 h 2.0566406 v 0.35156 l -0.4614258,0.0308 q -0.1757812,0.0132 -0.1757812,0.17578 v 2.12695 h 0.290039 l 1.7666016,-2.15771 q 0.026367,-0.0352 0,-0.0879 -0.017578,-0.0395 -0.065918,-0.0483 l -0.4130859,-0.0395 v -0.35156 h 1.7138672 v 0.35156 l -0.5493164,0.0615 -1.6523438,1.97754 1.8149414,2.65869 0.5844727,0.0395 z"
           style="fill:#ff6600"
           id="path281" />
        <path
           d="m 10.795169,238.00682 q -0.8041987,0.50098 -1.54248,0.50098 -0.7822266,0 -1.3051758,-0.49658 -0.571289,-0.55371 -0.571289,-1.51172 0,-0.94043 0.5361328,-1.51611 0.5273437,-0.57129 1.3666992,-0.57129 0.7338868,0 1.1337888,0.46582 0.382324,0.44824 0.382324,1.19092 0,0.0791 -0.0044,0.13623 0,0.0571 -0.0044,0.0923 H 8.1584507 q 0,0.7207 0.2856446,1.16455 0.3471679,0.54932 1.067871,0.54932 0.5273437,0 1.2832027,-0.49658 z M 9.9821812,235.9326 v -0.18017 q 0,-0.43067 -0.1889649,-0.67676 -0.2109375,-0.27246 -0.5932617,-0.27246 -0.4086914,0 -0.6855468,0.30322 -0.2768555,0.29883 -0.3120118,0.82617 z"
           style="fill:#ff6600"
           id="path283" />
        <path
           d="m 15.281986,234.82518 -0.421875,0.0483 -1.555664,3.78809 q -0.386719,0.94922 -0.733887,1.29639 -0.312012,0.31201 -0.703125,0.31201 -0.272461,0 -0.439453,-0.14063 -0.153809,-0.13183 -0.153809,-0.32519 0,-0.26807 0.259278,-0.4878 l 0.760254,0.34717 q 0.373535,-0.36914 0.681152,-1.26123 l -1.375488,-3.52881 -0.448242,-0.0483 v -0.3164 h 1.792968 v 0.3164 l -0.391113,0.022 q -0.127441,0.009 -0.127441,0.13183 0,0.0308 0.0088,0.0483 l 0.940429,2.38623 0.958008,-2.38623 q 0.02637,-0.0571 -0.0088,-0.11426 -0.03076,-0.0571 -0.101074,-0.0659 l -0.382324,-0.022 v -0.3164 h 1.441406 z"
           style="fill:#ff6600"
           id="path285" />
        <path
           d="M 6.0710484,242.58768 H 5.5920445 l -0.1142578,-0.74267 q -0.017578,-0.14942 -0.1362305,-0.14942 H 3.6145054 v 2.10938 h 1.2436524 q 0.1274414,0 0.140625,-0.14502 l 0.074707,-0.57129 h 0.4042969 v 1.82373 H 5.0734898 l -0.074707,-0.5669 q -0.013184,-0.14501 -0.140625,-0.14501 H 3.6145054 v 1.97753 q 0,0.167 0.1713867,0.18018 l 0.5405274,0.0308 v 0.34717 H 2.1994663 v -0.34717 l 0.4262696,-0.0308 q 0.1713867,-0.0132 0.1713867,-0.18018 v -4.31982 q 0,-0.1626 -0.1713867,-0.17578 l -0.4921875,-0.0308 v -0.35157 h 3.9375 z"
           style="fill:#ff6600"
           id="path287" />
        <path
           d="M 9.3977085,243.65995 H 9.0813023 q -0.2021485,-0.22412 -0.4394531,-0.22412 -0.3735352,0 -0.8129883,0.50537 v 2.27637 q 0,0.17578 0.1713867,0.18017 l 0.5361328,0.022 v 0.31641 H 6.5105015 v -0.30762 l 0.3999023,-0.0308 q 0.1669922,-0.0132 0.1669922,-0.18017 v -2.8125 H 6.4929234 V 243.137 l 1.0063476,-0.30322 h 0.3295899 v 0.7207 q 0.1801758,-0.19775 0.2988281,-0.3252 0.1186523,-0.12744 0.1845703,-0.18457 0.347168,-0.30761 0.5888672,-0.30761 0.2768555,0 0.496582,0.11865 z"
           style="fill:#ff6600"
           id="path289" />
        <path
           d="m 13.46265,246.73612 h -1.199707 l -0.109863,-0.479 q -0.769043,0.57568 -1.349121,0.57568 -0.452637,0 -0.742676,-0.29004 -0.3076174,-0.30322 -0.3076174,-0.8042 0,-0.50537 0.4042964,-0.79101 0.259278,-0.18457 0.75586,-0.35157 0.496582,-0.17138 1.239258,-0.32959 v -0.35156 q 0,-0.7998 -0.747071,-0.7998 -0.312011,0 -0.575683,0.10546 v 0.70313 h -0.588867 q -0.3032231,0 -0.3032231,-0.23291 0,-0.46143 0.5449221,-0.7251 0.479004,-0.22851 1.142578,-0.22851 1.278808,0 1.278808,1.21289 v 2.26758 q 0,0.16699 0.171387,0.18017 l 0.386719,0.022 z m -1.30957,-0.76465 v -1.39746 q -0.997559,0.25049 -1.344727,0.54053 -0.250488,0.21094 -0.250488,0.57129 0,0.26806 0.158203,0.45703 0.175781,0.21533 0.443848,0.21533 0.404296,0 0.993164,-0.38672 z"
           style="fill:#ff6600"
           id="path291" />
        <path
           d="m 20.30933,246.73612 h -1.810547 v -0.31641 l 0.333984,-0.022 q 0.166992,-0.0132 0.166992,-0.18017 v -2.06983 q 0,-0.82617 -0.716308,-0.82617 -0.408692,0 -0.865723,0.23291 v 2.66309 q 0,0.16699 0.171387,0.18017 l 0.342773,0.022 v 0.31641 h -1.77539 v -0.31641 l 0.342773,-0.022 q 0.166992,-0.0132 0.166992,-0.18017 v -2.10938 q 0,-0.78662 -0.711914,-0.78662 -0.448242,0 -0.870117,0.2373 v 2.6587 q 0,0.16699 0.171387,0.18017 l 0.342773,0.022 v 0.31641 h -1.832519 v -0.31641 l 0.399902,-0.022 q 0.166992,-0.0132 0.166992,-0.18017 v -2.8125 H 13.774662 V 243.137 l 0.97998,-0.30322 h 0.32959 v 0.40429 q 0.830566,-0.50097 1.322754,-0.50097 0.602051,0 0.89209,0.55371 0.883301,-0.55371 1.40625,-0.55371 1.045898,0 1.045898,1.23486 v 2.24561 q 0,0.16699 0.171387,0.18017 l 0.386719,0.022 z"
           style="fill:#ff6600"
           id="path293" />
        <path
           d="m 24.180912,246.33182 q -0.8042,0.50098 -1.542481,0.50098 -0.782226,0 -1.305176,-0.49658 -0.571289,-0.55371 -0.571289,-1.51172 0,-0.94043 0.536133,-1.51611 0.527344,-0.57129 1.366699,-0.57129 0.733887,0 1.133789,0.46582 0.382325,0.44824 0.382325,1.19091 0,0.0791 -0.0044,0.13624 0,0.0571 -0.0044,0.0923 h -2.62793 q 0,0.7207 0.285644,1.16455 0.347168,0.54932 1.067872,0.54932 0.527343,0 1.283203,-0.49658 z m -0.812989,-2.07422 v -0.18017 q 0,-0.43067 -0.188964,-0.67676 -0.210938,-0.27246 -0.593262,-0.27246 -0.408692,0 -0.685547,0.30322 -0.276856,0.29883 -0.312012,0.82617 z"
           style="fill:#ff6600"
           id="path295" />
        <path
           d="m 27.406498,245.56717 q 0,0.59327 -0.408692,0.92725 -0.413086,0.33838 -1.138183,0.33838 -0.316407,0 -0.597657,-0.0483 -0.276855,-0.0527 -0.527343,-0.14941 v -1.08545 h 0.413086 l 0.09668,0.69433 q 0.333985,0.22412 0.720703,0.22412 0.32959,0 0.536133,-0.19336 0.19336,-0.18017 0.19336,-0.43945 0,-0.31201 -0.259278,-0.50537 -0.07031,-0.0571 -0.254883,-0.14941 -0.180175,-0.0967 -0.474609,-0.2417 -0.479004,-0.22852 -0.676758,-0.43506 -0.237304,-0.2417 -0.237304,-0.59326 0,-0.54493 0.382324,-0.85694 0.382324,-0.3164 1.07666,-0.3164 0.312012,0 0.566894,0.0483 0.259278,0.0483 0.465821,0.13623 v 0.958 H 26.86597 l -0.06592,-0.57128 q -0.241699,-0.18897 -0.615234,-0.18897 -0.654785,0 -0.654785,0.54492 0,0.27246 0.193359,0.43946 0.166992,0.14941 0.703125,0.3955 0.241699,0.10987 0.417481,0.21534 0.175781,0.10546 0.285644,0.21972 0.276856,0.25928 0.276856,0.63281 z"
           style="fill:#ff6600"
           id="path297" />
      </g>
    </g>
  </g>
  <g
     inkscape:groupmode="layer"
     id="layer2"
     inkscape:label="components">
    <circle
       r="4"
       cy="56.41861"
       cx="16.953516"
       id="circle4956"
       style="display:inline;opacity:1;vector-effect:none;fill:#00ff00;fill-opacity:1;fill-rule:evenodd;stroke:none;stroke-width:1;stroke-linecap:butt;stroke-linejoin:miter;stroke-miterlimit:4;stroke-dasharray:none;stroke-dashoffset:0;stroke-opacity:1;paint-order:normal"
       inkscape:label="trackone" />
    <circle
       r="4"
       cy="66.184563"
       cx="23.727768"
       id="circle4956-3"
       style="display:inline;vector-effect:none;fill:#00ff00;fill-opacity:1;fill-rule:evenodd;stroke:none;stroke-width:1;stroke-linecap:butt;stroke-linejoin:miter;stroke-miterlimit:4;stroke-dasharray:none;stroke-dashoffset:0;stroke-opacity:1;paint-order:normal"
       inkscape:label="tracktwo" />
    <circle
       style="display:inline;vector-effect:none;fill:#0000ff;fill-opacity:1;fill-rule:evenodd;stroke:none;stroke-width:1;stroke-linecap:butt;stroke-linejoin:miter;stroke-miterlimit:4;stroke-dasharray:none;stroke-dashoffset:0;stroke-opacity:1;paint-order:normal"
       id="circle4958-3"
       cx="15.002869"
       cy="83.231094"
       r="4"
       inkscape:label="debug" />
  </g>
</svg>
