<?xml version="1.0" encoding="UTF-8" standalone="no"?>
<!-- Created with Inkscape (http://www.inkscape.org/) -->

<svg
   width="61mm"
   height="128mm"
   viewBox="0 0 61 128"
   version="1.1"
   id="svg12"
   inkscape:version="1.3 (0e150ed, 2023-07-21)"
   sodipodi:docname="ToKeyframes.svg"
   xmlns:inkscape="http://www.inkscape.org/namespaces/inkscape"
   xmlns:sodipodi="http://sodipodi.sourceforge.net/DTD/sodipodi-0.dtd"
   xmlns="http://www.w3.org/2000/svg"
   xmlns:svg="http://www.w3.org/2000/svg">
  <sodipodi:namedview
     id="namedview14"
     pagecolor="#2d2d2d"
     bordercolor="#000000"
     borderopacity="0.25"
     inkscape:pageshadow="2"
     inkscape:pageopacity="0"
     inkscape:pagecheckerboard="0"
     inkscape:document-units="mm"
     showgrid="false"
     inkscape:zoom="1.4142136"
     inkscape:cx="21.566757"
     inkscape:cy="200.11122"
     inkscape:window-width="1920"
     inkscape:window-height="1016"
     inkscape:window-x="1600"
     inkscape:window-y="27"
     inkscape:window-maximized="1"
     inkscape:current-layer="layer2"
     inkscape:showpageshadow="2"
     inkscape:deskcolor="#d1d1d1" />
  <defs
     id="defs9">
    <filter
       style="color-interpolation-filters:sRGB;"
       inkscape:label="Blur"
       id="filter36"
       x="-0.47387286"
       y="-0.21687504"
       width="1.9477457"
       height="1.4337501">
      <feGaussianBlur
         stdDeviation="3.65612 3.45725"
         result="fbSourceGraphic"
         id="feGaussianBlur36" />
      <feColorMatrix
         result="fbSourceGraphicAlpha"
         in="fbSourceGraphic"
         values="0 0 0 -1 0 0 0 0 -1 0 0 0 0 -1 0 0 0 0 1 0"
         id="feColorMatrix36" />
      <feGaussianBlur
         id="feGaussianBlur37"
         stdDeviation="3.65612 3.45725"
         result="fbSourceGraphic"
         in="fbSourceGraphic" />
      <feColorMatrix
         result="fbSourceGraphicAlpha"
         in="fbSourceGraphic"
         values="0 0 0 -1 0 0 0 0 -1 0 0 0 0 -1 0 0 0 0 1 0"
         id="feColorMatrix37" />
      <feGaussianBlur
         id="feGaussianBlur38"
         stdDeviation="3.65612 3.45725"
         result="blur"
         in="fbSourceGraphic" />
    </filter>
  </defs>
  <g
     inkscape:groupmode="layer"
     id="layer4"
     inkscape:label="shadow">
    <path
       style="display:inline;fill:#000000;filter:url(#filter36)"
       d="m 25.027367,127.88201 c -0.0118,-0.11289 -0.02146,-2.65251 -0.02146,-5.64358 V 116.8001 H 39.29854 53.591167 v 5.43833 c 0,2.99107 -0.0097,5.53069 -0.02145,5.64358 l -0.02145,0.20526 H 39.29854 25.048821 Z m -9.855984,-18.45136 c -0.323996,-0.028 -1.13167,-0.15415 -1.452639,-0.22687 -1.501732,-0.34022 -2.978523,-1.04984 -4.2123701,-2.02409 -0.4266907,-0.33692 -1.2978684,-1.20737 -1.6347288,-1.63336 -1.1991052,-1.5164 -1.8936173,-3.12368 -2.2077358,-5.10928 L 5.5873077,99.952835 V 75.742192 c 0,-23.049572 0.00286,-24.231148 0.059562,-24.638199 0.1896071,-1.36105 0.537927,-2.447856 1.1657366,-3.637259 1.009967,-1.913411 2.6313578,-3.475986 4.6186497,-4.451106 1.065495,-0.522815 2.093635,-0.830326 3.372793,-1.008784 0.370948,-0.05175 2.107463,-0.05669 23.367444,-0.06639 l 22.966716,-0.01048 v 33.761728 33.761728 l -22.916625,-0.006 c -12.604144,-0.003 -22.976735,-0.0108 -23.050201,-0.0172 z M 11.996811,34.206525 c -0.0092,-0.024 -0.01194,-2.61245 -0.0061,-5.752115 l 0.01067,-5.708482 0.07433,-0.45654 c 0.303679,-1.865188 0.952004,-3.418943 2.011045,-4.819606 1.780252,-2.354521 4.422205,-3.831769 7.374559,-4.123486 0.493041,-0.04872 35.143941,-0.04708 35.669591,0.0017 1.243815,0.115389 2.400724,0.438267 3.548111,0.990231 l 0.459168,0.220888 v 9.84553 9.845529 H 36.575882 c -20.186693,0 -24.56531,-0.0078 -24.579071,-0.04363 z"
       id="path1" />
  </g>
  <g
     inkscape:groupmode="layer"
     id="layer3"
     inkscape:label="stuff"
     style="display:inline">
    <g
       id="g2"
       style="display:inline">
      <path
         style="fill:#feb439"
         d="m 21.094557,109.8959 c -0.04154,-0.053 -0.04036,-0.0541 0.01261,-0.0126 0.05563,0.0436 0.07332,0.071 0.04583,0.071 -0.0069,0 -0.03323,-0.0263 -0.05844,-0.0584 z m -2.163713,-5.2039 c 0.0016,-0.0389 0.0095,-0.0468 0.02017,-0.0202 0.0096,0.0241 0.0085,0.0529 -0.0026,0.064 -0.0111,0.0111 -0.01899,-0.009 -0.01754,-0.0438 z M 10.663195,89.800296 C 8.3445632,89.528568 6.2233193,88.317748 4.8350434,86.473548 3.8329412,85.142345 3.2555184,83.600589 3.1311069,81.923929 3.1071388,81.600918 3.0994187,75.340913 3.1065778,62.033958 l 0.010447,-19.418605 0.076087,-0.463139 c 0.093149,-0.567001 0.2630358,-1.239798 0.4239254,-1.678862 0.1727785,-0.471509 0.6076849,-1.33947 0.8760644,-1.748399 0.6328531,-0.964277 1.5157804,-1.847205 2.4800576,-2.480058 0.4089293,-0.268379 1.2768907,-0.703286 1.7483993,-0.876064 0.6479119,-0.237419 1.4823615,-0.418716 2.2254865,-0.48352 0.545889,-0.04761 38.743642,-0.04595 39.288029,0.0017 2.68188,0.234752 5.075278,1.689245 6.512565,3.957754 0.236032,0.372535 0.639983,1.194925 0.799945,1.628582 0.160961,0.43636 0.331068,1.108765 0.424726,1.678862 l 0.07609,0.463139 0.01045,19.418605 c 0.0072,13.306955 -5.61e-4,19.56696 -0.02453,19.889971 -0.222098,2.993153 -1.935623,5.601265 -4.580382,6.971681 -0.950649,0.492591 -1.921537,0.786229 -3.001796,0.907872 -0.59449,0.06694 -39.216928,0.06385 -39.78894,-0.0032 z M 8.3183821,23.989854 c 0.014901,-4.982416 0.00995,-4.844693 0.2067474,-5.748988 C 8.92483,16.40424 9.9301,14.736518 11.359405,13.538863 c 1.267459,-1.062039 2.833539,-1.744793 4.462164,-1.94534 0.36855,-0.04538 2.065696,-0.05128 14.761141,-0.05128 15.667089,0 14.656888,-0.01215 15.5616,0.18716 1.24023,0.273223 2.525919,0.892181 3.539763,1.704116 0.359217,0.287678 0.950477,0.879416 1.246798,1.247806 0.81028,1.00735 1.431141,2.296249 1.705078,3.539716 0.188066,0.853676 0.18716,0.825669 0.18716,5.784512 v 4.567626 H 30.563892 8.304675 Z"
         id="path3" />
      <path
         style="fill:#424242"
         d="m 26.792492,112.70351 c -2.530621,-0.23906 -4.674286,-1.42208 -6.160958,-3.40005 -0.8331,-1.10841 -1.372924,-2.4046 -1.612463,-3.87174 -0.06984,-0.42777 -0.07147,-0.52693 -0.08239,-5.01972 l -0.01114,-4.583323 h 11.655836 11.655836 l -2.85e-4,4.332873 c -1.73e-4,2.61668 -0.01355,4.48498 -0.03377,4.7169 -0.264593,3.03414 -2.025091,5.62853 -4.724583,6.96245 -0.544172,0.2689 -1.384351,0.56558 -1.936852,0.68395 -0.872318,0.18688 -0.700479,0.18023 -4.808735,0.18597 -2.093803,0.003 -3.867024,-3.7e-4 -3.940491,-0.007 z"
         id="path2" />
    </g>
    <g
       id="g4"
       style="display:inline">
      <path
         style="fill:#8c8c8c;fill-opacity:1"
         d="m 12.832732,85.484552 c 0.05043,-0.0076 0.132955,-0.0076 0.183386,0 0.05043,0.0076 0.0092,0.01389 -0.09169,0.01389 -0.100862,0 -0.142124,-0.0063 -0.09169,-0.01389 z m 24.707524,-4.4e-5 c 0.05068,-0.0077 0.125705,-0.0075 0.166714,4.55e-4 0.04101,0.0079 -4.58e-4,0.01419 -0.09215,0.01394 -0.09169,-2.5e-4 -0.125246,-0.0067 -0.07456,-0.01439 z m 12.520177,3.44e-4 c 0.04148,-0.008 0.101493,-0.0077 0.133372,6.73e-4 0.03188,0.0083 -0.0021,0.01487 -0.07541,0.0145 -0.07335,-3.7e-4 -0.09944,-0.0072 -0.05796,-0.01517 z m -37.70709,-0.134796 -0.04576,-0.05835 0.05835,0.04576 c 0.03209,0.02517 0.05835,0.05143 0.05835,0.05835 0,0.02744 -0.02738,0.0098 -0.07094,-0.04576 z m 38.165166,-0.0083 c 0.03319,-0.03668 0.06785,-0.06669 0.07702,-0.06669 0.0092,0 -0.01049,0.03001 -0.04368,0.06669 -0.03319,0.03668 -0.06785,0.06669 -0.07702,0.06669 -0.0092,0 0.01049,-0.03001 0.04368,-0.06669 z m -26.31893,-0.03334 c 0,-0.04585 0.0076,-0.0646 0.01682,-0.04168 0.0092,0.02292 0.0092,0.06043 0,0.08336 -0.0093,0.02292 -0.01682,0.0042 -0.01682,-0.04168 z m 0.966943,0 c 0,-0.04585 0.0076,-0.0646 0.01682,-0.04168 0.0092,0.02292 0.0092,0.06043 0,0.08336 -0.0093,0.02292 -0.01682,0.0042 -0.01682,-0.04168 z m 24.464148,0.0083 -0.04576,-0.05835 0.05835,0.04576 c 0.03209,0.02517 0.05835,0.05143 0.05835,0.05835 0,0.02744 -0.02738,0.0098 -0.07094,-0.04576 z M 10.816086,85.150841 c 0.05993,-0.0074 0.149954,-0.0073 0.200057,3.4e-4 0.0501,0.0076 0.0011,0.01368 -0.108961,0.01349 -0.110032,-1.87e-4 -0.151025,-0.0064 -0.0911,-0.01383 z m 0.649589,2.83e-4 c 0.05043,-0.0076 0.132954,-0.0076 0.183385,0 0.05043,0.0076 0.0092,0.01389 -0.09169,0.01389 -0.100863,0 -0.142124,-0.0063 -0.09169,-0.01389 z m 11.754866,2.6e-4 0.176555,-0.01331 -0.0098,-0.563452 c -0.0054,-0.309899 0.0018,-0.551777 0.01602,-0.537506 0.01422,0.01427 0.02173,0.272383 0.01667,0.573583 l -0.0092,0.547636 -0.183386,0.0032 -0.183385,0.0032 z m 0.581995,-2.6e-4 c 0.05043,-0.0076 0.132954,-0.0076 0.183386,0 0.05043,0.0076 0.0092,0.01389 -0.09169,0.01389 -0.100862,0 -0.142124,-0.0063 -0.09169,-0.01389 z m 1.583786,0.002 c 0.04126,-0.0089 0.07502,-0.03008 0.07502,-0.04714 v -0.03102 h -0.400114 -0.400114 l 0.0056,-0.141707 0.0056,-0.141707 0.01302,0.123994 0.01302,0.123995 0.389828,0.0094 0.389828,0.0094 v 0.05001 0.05001 l -0.08336,0.0055 -0.08336,0.0055 z m 10.17108,-0.0018 0.176555,-0.01331 -0.0098,-0.563452 c -0.0054,-0.309899 0.0018,-0.551777 0.01602,-0.537506 0.01422,0.01427 0.02173,0.272383 0.01667,0.573583 l -0.0092,0.547636 -0.183386,0.0032 -0.183385,0.0032 z m 0.581995,-2.6e-4 c 0.05043,-0.0076 0.132955,-0.0076 0.183386,0 0.05043,0.0076 0.0092,0.01389 -0.09169,0.01389 -0.100862,0 -0.142124,-0.0063 -0.09169,-0.01389 z m 11.670004,0 c 0.05043,-0.0076 0.132954,-0.0076 0.183386,0 0.05043,0.0076 0.0092,0.01389 -0.09169,0.01389 -0.100863,0 -0.142124,-0.0063 -0.09169,-0.01389 z m 0.573446,-0.01859 c -0.009,-0.02336 -0.01193,-0.372207 -0.0066,-0.775221 l 0.0097,-0.732755 0.0077,0.756808 0.0077,0.756808 0.17505,0.01225 0.17505,0.01225 -0.176097,0.0062 -0.176096,0.0062 z m 1.88559,0.02988 c 0,-0.0069 0.02626,-0.03318 0.05835,-0.05835 l 0.05835,-0.04576 -0.04576,0.05835 c -0.04356,0.05554 -0.07094,0.0732 -0.07094,0.04576 z m -12.336861,-0.03334 c 0,-0.0069 0.02626,-0.03318 0.05835,-0.05835 l 0.05835,-0.04576 -0.04576,0.05835 c -0.04356,0.05554 -0.07094,0.0732 -0.07094,0.04576 z m 11.920075,-0.387526 c 0.03319,-0.03668 0.06785,-0.06668 0.07702,-0.06668 0.0092,0 -0.01049,0.03001 -0.04368,0.06668 -0.03319,0.03668 -0.06785,0.06669 -0.07702,0.06669 -0.0092,0 0.01049,-0.03001 0.04368,-0.06669 z M 25.455296,84.458059 c -0.0058,-0.174257 6.29e-4,-0.316798 0.01438,-0.316757 0.01375,4.1e-5 0.02501,0.142615 0.02501,0.316832 0,0.174216 -0.0065,0.316757 -0.01438,0.316757 -0.0079,0 -0.01916,-0.142574 -0.02501,-0.316832 z m 24.638091,0.161378 c 0.02292,-0.0092 0.06043,-0.0092 0.08336,0 0.02292,0.0092 0.0042,0.01682 -0.04168,0.01682 -0.04585,0 -0.0646,-0.0076 -0.04168,-0.01682 z m -11.94825,-0.219653 -0.06352,-0.07502 0.07502,0.06352 c 0.0705,0.05969 0.0902,0.08653 0.06352,0.08653 -0.0063,0 -0.04009,-0.03376 -0.07502,-0.07502 z m -25.179033,-0.04799 c 0.03209,-0.0084 0.08461,-0.0084 0.1167,0 0.03209,0.0084 0.0058,0.01525 -0.05835,0.01525 -0.06419,0 -0.09044,-0.0069 -0.05835,-0.01525 z M 49.71828,83.907977 c 0.03319,-0.03668 0.06785,-0.06669 0.07702,-0.06669 0.0092,0 -0.01049,0.03001 -0.04368,0.06669 -0.03319,0.03668 -0.06785,0.06668 -0.07702,0.06668 -0.0092,0 0.01049,-0.03001 0.04368,-0.06668 z M 11.984573,73.148795 c 0.02407,-0.0096 0.05283,-0.0084 0.06391,0.0026 0.01108,0.01108 -0.0086,0.01896 -0.04376,0.01751 l -0.06391,-0.0026 z m 13.437176,0 c 0.02407,-0.0096 0.05283,-0.0084 0.06391,0.0026 0.01108,0.01108 -0.0086,0.01896 -0.04376,0.01751 l -0.06391,-0.0026 z m -2.119356,-0.03535 c 0.142124,-0.0063 0.37469,-0.0063 0.516814,0 0.142124,0.0063 0.02584,0.01136 -0.258407,0.01136 -0.284248,0 -0.400531,-0.0051 -0.258407,-0.01136 z m 12.336861,0 c 0.142124,-0.0063 0.37469,-0.0063 0.516814,0 0.142124,0.0063 0.02584,0.01136 -0.258407,0.01136 -0.284248,0 -0.400531,-0.0051 -0.258407,-0.01136 z m 1.785427,-4.9e-5 c 0.152164,-0.0062 0.392232,-0.0062 0.533485,7.7e-5 0.141254,0.0062 0.01676,0.0113 -0.276661,0.01126 -0.293418,-4.2e-5 -0.408988,-0.0051 -0.256824,-0.01134 z m 10.536346,0 c 0.152164,-0.0062 0.392232,-0.0062 0.533486,7.7e-5 0.141253,0.0062 0.01676,0.0113 -0.276662,0.01126 -0.293417,-4.2e-5 -0.408988,-0.0051 -0.256824,-0.01134 z m 1.650701,-6.7e-5 c 0.198136,-0.0059 0.513226,-0.0059 0.7002,5e-5 0.186974,0.0059 0.02486,0.01076 -0.360248,0.01074 -0.38511,-2.7e-5 -0.538089,-0.0049 -0.339952,-0.01079 z m -23.86697,-0.108472 c 0.03319,-0.03668 0.06785,-0.06669 0.07702,-0.06669 0.0092,0 -0.01049,0.03001 -0.04368,0.06669 -0.03319,0.03668 -0.06785,0.06669 -0.07702,0.06669 -0.0092,0 0.01048,-0.03001 0.04368,-0.06669 z m -1.547811,-0.01945 0.0026,-0.06391 0.01751,0.04376 c 0.0096,0.02407 0.0084,0.05283 -0.0026,0.06391 -0.01108,0.01108 -0.01896,-0.0086 -0.01751,-0.04376 z m -11.672636,-0.09725 c 0.04307,-0.04585 0.08581,-0.08336 0.09498,-0.08336 0.0092,0 -0.01857,0.03751 -0.06164,0.08336 -0.04307,0.04585 -0.08581,0.08336 -0.09498,0.08336 -0.0092,0 0.01857,-0.03751 0.06164,-0.08336 z m 10.883488,-0.616843 c 0,-0.320925 0.005,-0.452213 0.01111,-0.29175 0.0061,0.160462 0.0061,0.423038 0,0.5835 -0.0061,0.160463 -0.01111,0.02918 -0.01111,-0.29175 z m 1.715863,0.508479 -0.04576,-0.05835 0.05835,0.04576 c 0.03209,0.02517 0.05835,0.05143 0.05835,0.05835 0,0.02744 -0.02738,0.0098 -0.07094,-0.04576 z m 0.371024,0.04576 c 0,-0.0069 0.02626,-0.03318 0.05835,-0.05835 l 0.05835,-0.04576 -0.04576,0.05835 c -0.04356,0.05554 -0.07094,0.0732 -0.07094,0.04576 z M 35.74459,72.254644 c -3.8e-5,-0.311756 0.005,-0.443781 0.01114,-0.293388 0.0062,0.150393 0.0062,0.405466 7e-5,0.566829 -0.0061,0.161363 -0.01117,0.03831 -0.01121,-0.273441 z m 12.623304,-0.180608 v -0.730764 l -0.04168,-0.01682 -0.04168,-0.01682 0.05835,-0.0026 0.05835,-0.0026 v 0.750214 c 0,0.412618 -0.0075,0.750215 -0.01667,0.750215 -0.0092,0 -0.01667,-0.328844 -0.01667,-0.730765 z m 2.196376,0.639072 -0.04576,-0.05835 0.05835,0.04576 c 0.03209,0.02517 0.05835,0.05143 0.05835,0.05835 0,0.02744 -0.02738,0.0098 -0.07094,-0.04576 z m -0.695947,0.01242 c 0,-0.0069 0.02626,-0.03318 0.05835,-0.05835 l 0.05835,-0.04576 -0.04576,0.05835 c -0.04356,0.05554 -0.07094,0.0732 -0.07094,0.04576 z m -24.871147,-0.240261 0.0026,-0.06391 0.01751,0.04376 c 0.0096,0.02407 0.0084,0.05283 -0.0026,0.06391 -0.01108,0.01108 -0.01896,-0.0086 -0.01751,-0.04376 z m 24.804461,-0.09317 c 0,-0.0069 0.02626,-0.03318 0.05835,-0.05835 l 0.05835,-0.04576 -0.04576,0.05835 c -0.04356,0.05554 -0.07094,0.0732 -0.07094,0.04576 z m 0.566829,-0.104112 c 0.06221,-0.06419 0.120612,-0.1167 0.129781,-0.1167 0.0092,0 -0.03423,0.05251 -0.09644,0.1167 -0.06221,0.06418 -0.120613,0.1167 -0.129782,0.1167 -0.0092,0 0.03423,-0.05251 0.09644,-0.1167 z m -37.535661,-0.13337 c 3.7e-4,-0.07335 0.0072,-0.09944 0.01517,-0.05796 0.008,0.04148 0.0077,0.101492 -6.73e-4,0.133371 -0.0083,0.03188 -0.01487,-0.0021 -0.0145,-0.07541 z m 37.302261,-0.06669 c 0.06221,-0.06419 0.120612,-0.1167 0.129781,-0.1167 0.0092,0 -0.03423,0.05251 -0.09644,0.1167 -0.06221,0.06418 -0.120613,0.1167 -0.129782,0.1167 -0.0092,0 0.03423,-0.05251 0.09644,-0.1167 z m -37.727455,-0.05001 c 0.03319,-0.03668 0.06785,-0.06669 0.07702,-0.06669 0.0092,0 -0.01049,0.03001 -0.04368,0.06669 -0.03319,0.03668 -0.06785,0.06669 -0.07702,0.06669 -0.0092,0 0.01049,-0.03001 0.04368,-0.06669 z m 12.589565,-0.05279 0.0026,-0.06391 0.01751,0.04376 c 0.0096,0.02407 0.0084,0.05283 -0.0026,0.06391 -0.01108,0.01108 -0.01896,-0.0086 -0.01751,-0.04376 z m 24.464781,-0.07001 c 0.02407,-0.0096 0.05283,-0.0084 0.06391,0.0026 0.01108,0.01108 -0.0086,0.01896 -0.04376,0.01751 l -0.06391,-0.0026 z m 1.145174,-0.04391 c 0,-0.04585 0.0076,-0.0646 0.01682,-0.04168 0.0093,0.02292 0.0093,0.06043 0,0.08336 -0.0092,0.02292 -0.01682,0.0042 -0.01682,-0.04168 z M 11.70741,71.471086 c 0.03319,-0.03668 0.06785,-0.06669 0.07702,-0.06669 0.0092,0 -0.01049,0.03001 -0.04368,0.06669 -0.03319,0.03668 -0.06785,0.06669 -0.07702,0.06669 -0.0092,0 0.01049,-0.03001 0.04368,-0.06669 z m 13.203776,0 c 0.03319,-0.03668 0.06785,-0.06669 0.07702,-0.06669 0.0092,0 -0.01049,0.03001 -0.04368,0.06669 -0.03319,0.03668 -0.06785,0.06669 -0.07702,0.06669 -0.0092,0 0.01049,-0.03001 0.04368,-0.06669 z m -1.256609,-0.156148 c 0.02407,-0.0096 0.05283,-0.0084 0.06391,0.0026 0.01108,0.01108 -0.0086,0.01896 -0.04376,0.01751 l -0.06391,-0.0026 z m 12.336861,0 c 0.02407,-0.0096 0.05283,-0.0084 0.06391,0.0026 0.01108,0.01108 -0.0086,0.01896 -0.04376,0.01751 l -0.06391,-0.0026 z M 11.851202,60.811934 c 0.02407,-0.0096 0.05283,-0.0084 0.06391,0.0026 0.01108,0.01108 -0.0086,0.01896 -0.04376,0.01751 l -0.06391,-0.0026 z m -0.38036,-0.152274 -0.06352,-0.07502 0.07502,0.06352 c 0.04126,0.03494 0.07502,0.06869 0.07502,0.07502 0,0.02668 -0.02684,0.007 -0.08653,-0.06352 z m 13.50703,0.0083 c 0.03319,-0.03668 0.06785,-0.06669 0.07702,-0.06669 0.0092,0 -0.01049,0.03001 -0.04368,0.06669 -0.03319,0.03668 -0.06785,0.06669 -0.07702,0.06669 -0.0092,0 0.01049,-0.03001 0.04368,-0.06669 z m 23.603582,-0.04168 -0.06352,-0.07502 0.07502,0.06352 c 0.0705,0.05969 0.0902,0.08652 0.06352,0.08652 -0.0063,0 -0.04009,-0.03376 -0.07502,-0.07502 z M 24.7278,60.488693 c 0,-0.0069 0.02626,-0.03318 0.05835,-0.05835 l 0.05835,-0.04576 -0.04576,0.05835 c -0.04356,0.05554 -0.07094,0.0732 -0.07094,0.04576 z m 24.607037,0 c 0,-0.0069 0.02626,-0.03318 0.05835,-0.05835 l 0.05835,-0.04576 -0.04576,0.05835 c -0.04356,0.05554 -0.07094,0.0732 -0.07094,0.04576 z m -0.561564,-0.187468 c 0,-0.04585 0.0076,-0.0646 0.01682,-0.04168 0.0092,0.02292 0.0092,0.06043 0,0.08336 -0.0092,0.02292 -0.01682,0.0042 -0.01682,-0.04168 z m -35.975719,-0.08336 0.0012,-0.100028 0.01537,0.05898 c 0.0085,0.03244 0.0079,0.07746 -0.0012,0.100029 -0.0091,0.02257 -0.01605,-0.004 -0.01537,-0.05898 z m 11.072413,-0.250071 c 0,-0.08252 0.0065,-0.116283 0.01445,-0.07502 0.0079,0.04126 0.0079,0.108782 0,0.150043 -0.0079,0.04126 -0.01445,0.0075 -0.01445,-0.07502 z m 0.886923,0.07502 -0.04576,-0.05835 0.05835,0.04576 c 0.03209,0.02517 0.05835,0.05143 0.05835,0.05835 0,0.02744 -0.02738,0.0098 -0.07094,-0.04576 z m 24.840437,-0.06668 -0.04576,-0.05835 0.05835,0.04576 c 0.05554,0.04356 0.0732,0.07094 0.04576,0.07094 -0.0069,0 -0.03318,-0.02626 -0.05835,-0.05835 z m -0.502142,-0.23117 c 0.02407,-0.0096 0.05283,-0.0084 0.06391,0.0026 0.01108,0.01108 -0.0086,0.01896 -0.04376,0.01751 l -0.06391,-0.0026 z M 12.217973,59.578247 c 0.02407,-0.0096 0.05283,-0.0084 0.06391,0.0026 0.01108,0.01108 -0.0086,0.01896 -0.04376,0.01751 l -0.06391,-0.0026 z M 24.3777,59.467653 c 0.03319,-0.03668 0.06785,-0.06669 0.07702,-0.06669 0.0092,0 -0.01048,0.03001 -0.04368,0.06669 -0.03319,0.03668 -0.06785,0.06669 -0.07702,0.06669 -0.0092,0 0.01049,-0.03001 0.04368,-0.06669 z m -0.216728,-0.216729 c 0.04307,-0.04585 0.08581,-0.08336 0.09498,-0.08336 0.0092,0 -0.01857,0.03751 -0.06164,0.08336 -0.04307,0.04585 -0.08581,0.08336 -0.09498,0.08336 -0.0092,0 0.01857,-0.03751 0.06164,-0.08336 z m 11.950147,-0.09145 0.0033,-0.141955 h 0.650186 0.650186 l 0.0029,0.133372 0.0029,0.133371 -0.0131,-0.125036 -0.0131,-0.125035 h -0.62968 -0.62968 l -0.01352,0.133619 -0.01352,0.133619 z m 13.470621,-2.48e-4 -0.06352,-0.07502 0.07502,0.06352 c 0.0705,0.05969 0.0902,0.08653 0.06352,0.08653 -0.0063,0 -0.04009,-0.03376 -0.07502,-0.07502 z m -0.980446,0.02909 c 0,-0.0069 0.02626,-0.03318 0.05835,-0.05835 l 0.05835,-0.04576 -0.04576,0.05835 c -0.04356,0.05554 -0.07094,0.0732 -0.07094,0.04576 z M 11.815775,59.009438 c 0.132954,-0.0063 0.350517,-0.0063 0.483471,0 0.132955,0.0063 0.02417,0.01151 -0.241735,0.01151 -0.26591,0 -0.374691,-0.0052 -0.241736,-0.01151 z M 25.071221,48.297791 c 0,-0.100862 0.0062,-0.142124 0.01389,-0.09169 0.0076,0.05043 0.0076,0.132955 0,0.183386 -0.0076,0.05043 -0.01389,0.0092 -0.01389,-0.09169 z m 23.866134,0.01389 0.0026,-0.06391 0.01751,0.04376 c 0.0096,0.02407 0.0084,0.05283 -0.0026,0.06391 -0.01108,0.01108 -0.01896,-0.0086 -0.01751,-0.04376 z M 11.971125,47.58092 c -3.8e-5,-0.311756 0.005,-0.44378 0.01114,-0.293388 0.0062,0.150393 0.0062,0.405466 7e-5,0.566829 -0.0061,0.161363 -0.01117,0.03832 -0.01121,-0.273441 z m 0.279324,-0.200087 c -0.0053,-0.412634 0.0017,-0.75023 0.01545,-0.750214 0.01375,1.6e-5 0.02501,0.337625 0.02501,0.750243 0,0.412618 -0.007,0.750215 -0.01545,0.750215 -0.0085,0 -0.01975,-0.33761 -0.02501,-0.750244 z m 36.192539,0.566858 c 3.7e-4,-0.07335 0.0072,-0.09944 0.01517,-0.05796 0.008,0.04148 0.0077,0.101493 -6.73e-4,0.133371 -0.0083,0.03188 -0.01487,-0.0021 -0.0145,-0.07541 z m -23.556809,0.06128 c 0.02292,-0.0093 0.06043,-0.0093 0.08336,0 0.02292,0.0093 0.0042,0.01682 -0.04168,0.01682 -0.04585,0 -0.0646,-0.0076 -0.04168,-0.01682 z m -0.358436,-0.123878 c 0,-0.0069 0.02626,-0.03318 0.05835,-0.05835 l 0.05835,-0.04576 -0.04576,0.05835 c -0.04356,0.05554 -0.07094,0.0732 -0.07094,0.04576 z M 24.261,47.718374 c 0,-0.0069 0.02626,-0.03318 0.05835,-0.05835 l 0.05835,-0.04576 -0.04576,0.05835 c -0.04356,0.05554 -0.07094,0.0732 -0.07094,0.04576 z m 0.566829,-0.104111 c 0.04307,-0.04585 0.08581,-0.08336 0.09498,-0.08336 0.0092,0 -0.01857,0.03751 -0.06164,0.08336 -0.04307,0.04585 -0.08581,0.08336 -0.09498,0.08336 -0.0092,0 0.01857,-0.03751 0.06164,-0.08336 z m 12.499322,0.02501 -0.04576,-0.05835 0.05835,0.04576 c 0.05554,0.04356 0.0732,0.07094 0.04576,0.07094 -0.0069,0 -0.03318,-0.02626 -0.05835,-0.05835 z m -0.586948,0.0019 c 0.03244,-0.0085 0.07746,-0.0079 0.100029,0.0012 0.02257,0.0091 -0.004,0.01605 -0.05898,0.01537 l -0.100028,-0.0012 z m -12.21246,-0.154042 c 0,-0.0057 0.04876,-0.0545 0.108364,-0.108364 l 0.108365,-0.09793 -0.09793,0.108364 c -0.09129,0.101011 -0.118798,0.123691 -0.118799,0.09793 z m -0.433457,-0.40227 c 0,-0.0069 0.02626,-0.03318 0.05835,-0.05835 l 0.05835,-0.04576 -0.04576,0.05835 c -0.04356,0.05554 -0.07094,0.0732 -0.07094,0.04576 z m 12.303518,0 c 0,-0.0069 0.02626,-0.03318 0.05835,-0.05835 l 0.05835,-0.04576 -0.04576,0.05835 c -0.04356,0.05554 -0.07094,0.0732 -0.07094,0.04576 z m -0.230768,-0.140232 0.0026,-0.06391 0.01751,0.04376 c 0.0096,0.02407 0.0084,0.05283 -0.0026,0.06391 -0.01108,0.01108 -0.01896,-0.0086 -0.01751,-0.04376 z M 24.321434,46.641214 c 0.02407,-0.0096 0.05283,-0.0084 0.06391,0.0026 0.01108,0.01108 -0.0086,0.01896 -0.04376,0.01751 l -0.06391,-0.0026 z m 0.166715,0 c 0.02407,-0.0096 0.05283,-0.0084 0.06391,0.0026 0.01108,0.01108 -0.0086,0.01896 -0.04376,0.01751 l -0.06391,-0.0026 z m 12.168062,6.94e-4 c 0.02292,-0.0092 0.06043,-0.0092 0.08336,0 0.02292,0.0093 0.0042,0.01682 -0.04168,0.01682 -0.04585,0 -0.0646,-0.0076 -0.04168,-0.01682 z m 0.202142,-6.94e-4 c 0.02407,-0.0096 0.05283,-0.0084 0.06391,0.0026 0.01108,0.01108 -0.0086,0.01896 -0.04376,0.01751 l -0.06391,-0.0026 z M 28.15378,24.499911 c 0.07794,-0.007 0.205475,-0.007 0.283414,0 0.07794,0.007 0.01417,0.01276 -0.141707,0.01276 -0.155878,0 -0.219646,-0.0057 -0.141707,-0.01276 z m -0.189089,-0.09507 0.0026,-0.06391 0.01751,0.04376 c 0.0096,0.02407 0.0084,0.05283 -0.0026,0.06391 -0.01108,0.01108 -0.01896,-0.0086 -0.01751,-0.04376 z m 0.530853,-0.08058 -0.1167,-0.02456 0.106397,-0.0044 c 0.05852,-0.0024 0.11567,0.01061 0.127004,0.02895 0.01133,0.01834 0.01597,0.03137 0.0103,0.02895 -0.0057,-0.0024 -0.06282,-0.01544 -0.127004,-0.02895 z m -0.439709,-0.02278 c 0.02407,-0.0096 0.05283,-0.0084 0.06391,0.0026 0.01108,0.01108 -0.0086,0.01896 -0.04376,0.01751 l -0.06391,-0.0026 z M 14.251888,24.101434 c 0.02407,-0.0096 0.05283,-0.0084 0.06391,0.0026 0.01108,0.01108 -0.0086,0.01896 -0.04376,0.01751 l -0.06391,-0.0026 z m 2.202628,-0.102259 -0.04576,-0.05835 0.05835,0.04576 c 0.03209,0.02517 0.05835,0.05143 0.05835,0.05835 0,0.02744 -0.02738,0.0098 -0.07094,-0.04576 z m 17.75933,-0.0083 c 0.03319,-0.03668 0.06785,-0.06669 0.07702,-0.06669 0.0092,0 -0.01049,0.03001 -0.04368,0.06669 -0.03319,0.03668 -0.06785,0.06669 -0.07702,0.06669 -0.0092,0 0.01049,-0.03001 0.04368,-0.06669 z m 1.846276,0.0083 -0.04576,-0.05835 0.05835,0.04576 c 0.03209,0.02517 0.05835,0.05143 0.05835,0.05835 0,0.02744 -0.02738,0.0098 -0.07094,-0.04576 z m -21.335182,0.01242 c 0,-0.0069 0.02626,-0.03318 0.05835,-0.05835 l 0.05835,-0.04576 -0.04576,0.05835 c -0.04356,0.05554 -0.07094,0.0732 -0.07094,0.04576 z m 10.402975,0 c 0,-0.0069 0.02626,-0.03318 0.05835,-0.05835 l 0.05835,-0.04576 -0.04576,0.05835 c -0.04356,0.05554 -0.07094,0.0732 -0.07094,0.04576 z m 1.780675,-0.06243 -0.06352,-0.07502 0.07502,0.06352 c 0.0705,0.05969 0.0902,0.08652 0.06352,0.08652 -0.0063,0 -0.04009,-0.03376 -0.07502,-0.07502 z m 0.83674,0.0083 c 0.03319,-0.03668 0.06785,-0.06669 0.07702,-0.06669 0.0092,0 -0.01049,0.03001 -0.04368,0.06669 -0.03319,0.03668 -0.06785,0.06669 -0.07702,0.06669 -0.0092,0 0.01049,-0.03001 0.04368,-0.06669 z m -3.509264,-0.08336 c 3.7e-4,-0.07335 0.0072,-0.09944 0.01517,-0.05796 0.008,0.04147 0.0077,0.101493 -6.72e-4,0.133371 -0.0083,0.03188 -0.01487,-0.0021 -0.0145,-0.07541 z m 4.842979,0.05001 c 0.03319,-0.03668 0.06785,-0.06668 0.07702,-0.06668 0.0092,0 -0.01049,0.03001 -0.04368,0.06668 -0.03319,0.03668 -0.06785,0.06669 -0.07702,0.06669 -0.0092,0 0.01049,-0.03001 0.04368,-0.06669 z m -15.246627,-0.06668 c 0,-0.06419 0.0069,-0.09044 0.01525,-0.05835 0.0084,0.03209 0.0084,0.08461 0,0.1167 -0.0084,0.03209 -0.01525,0.0058 -0.01525,-0.05835 z m 0.519499,0.04391 c 0.02407,-0.0096 0.05283,-0.0084 0.06391,0.0026 0.01108,0.01108 -0.0086,0.01896 -0.04376,0.01751 l -0.06391,-0.0026 z m 1.248273,-2.07e-4 c 0.03209,-0.0084 0.08461,-0.0084 0.1167,0 0.03209,0.0084 0.0058,0.01525 -0.05835,0.01525 -0.06419,0 -0.09044,-0.0069 -0.05835,-0.01525 z m 1.167635,-1.22e-4 c 0.03244,-0.0085 0.07746,-0.0079 0.100029,0.0012 0.02257,0.0091 -0.004,0.01605 -0.05898,0.01537 l -0.100028,-0.0012 z m 2.717198,-4.76e-4 c 0.04148,-0.008 0.101493,-0.0077 0.133372,6.73e-4 0.03188,0.0083 -0.0021,0.01487 -0.07541,0.0145 -0.07335,-3.7e-4 -0.09944,-0.0072 -0.05796,-0.01517 z m 5.234442,0.0015 c 0.02292,-0.0092 0.06043,-0.0092 0.08336,0 0.02292,0.0093 0.0042,0.01682 -0.04168,0.01682 -0.04585,0 -0.0646,-0.0076 -0.04168,-0.01682 z m 1.2837,-9.02e-4 c 0.03209,-0.0084 0.08461,-0.0084 0.1167,0 0.03209,0.0084 0.0058,0.01525 -0.05835,0.01525 -0.06418,0 -0.09044,-0.0069 -0.05835,-0.01525 z m 1.301007,-1.22e-4 c 0.03244,-0.0085 0.07745,-0.0079 0.100028,0.0012 0.02257,0.0091 -0.004,0.01605 -0.05898,0.01537 l -0.100029,-0.0012 z m 5.18457,-4.76e-4 c 0.04147,-0.008 0.101492,-0.0077 0.133371,6.73e-4 0.03188,0.0083 -0.0021,0.01487 -0.07541,0.0145 -0.07335,-3.7e-4 -0.09944,-0.0072 -0.05796,-0.01517 z m 1.283311,5.98e-4 c 0.03209,-0.0084 0.08461,-0.0084 0.1167,0 0.03209,0.0084 0.0058,0.01525 -0.05835,0.01525 -0.06418,0 -0.09044,-0.0069 -0.05835,-0.01525 z m 1.317432,-5.98e-4 c 0.04148,-0.008 0.101493,-0.0077 0.133372,6.73e-4 0.03188,0.0083 -0.0021,0.01487 -0.07541,0.0145 -0.07335,-3.7e-4 -0.09944,-0.0072 -0.05796,-0.01517 z m 1.283312,5.98e-4 c 0.03209,-0.0084 0.08461,-0.0084 0.1167,0 0.03209,0.0084 0.0058,0.01525 -0.05835,0.01525 -0.06419,0 -0.09044,-0.0069 -0.05835,-0.01525 z m 5.8871,2.07e-4 c 0.02407,-0.0096 0.05283,-0.0084 0.06391,0.0026 0.01108,0.01108 -0.0086,0.01896 -0.04376,0.01751 l -0.06391,-0.0026 z m 1.115537,-3.29e-4 c 0.03244,-0.0085 0.07745,-0.0079 0.100028,0.0012 0.02257,0.0091 -0.004,0.01605 -0.05898,0.01537 l -0.100029,-0.0012 z m 2.750541,-4.76e-4 c 0.04148,-0.008 0.101492,-0.0077 0.133371,6.73e-4 0.03188,0.0083 -0.0021,0.01487 -0.07541,0.0145 -0.07335,-3.7e-4 -0.09944,-0.0072 -0.05796,-0.01517 z M 31.056694,23.868 c 0.02407,-0.0096 0.05283,-0.0084 0.06391,0.0026 0.01108,0.01108 -0.0086,0.01896 -0.04376,0.01751 l -0.06391,-0.0026 z M 36.0089,23.65741 c 0,-0.137539 0.0059,-0.193805 0.01308,-0.125035 0.0072,0.06877 0.0072,0.181301 0,0.250071 -0.0072,0.06877 -0.01308,0.0125 -0.01308,-0.125036 z m 6.993424,0.180608 0.0026,-0.06391 0.01751,0.04376 c 0.0096,0.02407 0.0084,0.05283 -0.0026,0.06391 -0.01108,0.01108 -0.01896,-0.0086 -0.01751,-0.04376 z m -25.031916,-0.21395 c 0,-0.13754 0.0059,-0.193806 0.01308,-0.125036 0.0072,0.06877 0.0072,0.181302 0,0.250071 -0.0072,0.06877 -0.01308,0.0125 -0.01308,-0.125035 z m 9.591536,0.220811 c 0,-0.0069 0.02626,-0.03318 0.05835,-0.05835 l 0.05835,-0.04576 -0.04576,0.05835 c -0.04356,0.05554 -0.07094,0.0732 -0.07094,0.04576 z m 3.830177,-0.04576 -0.04576,-0.05835 0.05835,0.04576 c 0.03209,0.02517 0.05835,0.05143 0.05835,0.05835 0,0.02744 -0.02738,0.0098 -0.07094,-0.04576 z M 43.977576,23.64074 c 1.48e-4,-0.12837 0.0062,-0.176799 0.01339,-0.107621 0.0072,0.06918 0.0071,0.174209 -2.69e-4,0.2334 -0.0074,0.05919 -0.01327,0.0026 -0.01312,-0.125779 z m -15.55297,0.125036 -0.04576,-0.05835 0.05835,0.04576 c 0.03209,0.02517 0.05835,0.05143 0.05835,0.05835 0,0.02744 -0.02738,0.0098 -0.07094,-0.04576 z m -13.563662,-0.02779 0.0026,-0.06391 0.01751,0.04376 c 0.0096,0.02407 0.0084,0.05283 -0.0026,0.06391 -0.01108,0.01108 -0.01896,-0.0086 -0.01751,-0.04376 z m 2.250155,-0.0041 -0.02277,-0.05979 0.04143,0.04112 c 0.02279,0.02262 0.03303,0.04952 0.02277,0.05979 -0.01027,0.01027 -0.02891,-0.0082 -0.04143,-0.04112 z m 9.886649,-0.09591 0.0026,-0.06391 0.01751,0.04376 c 0.0096,0.02407 0.0084,0.05283 -0.0026,0.06391 -0.01108,0.01108 -0.01896,-0.0086 -0.01751,-0.04376 z m 18.571977,0 0.0026,-0.06391 0.01751,0.04376 c 0.0096,0.02407 0.0084,0.05283 -0.0026,0.06391 -0.01108,0.01108 -0.01896,-0.0086 -0.01751,-0.04376 z M 27.028458,23.51145 c 0,-0.0069 0.02626,-0.03318 0.05835,-0.05835 l 0.05835,-0.04576 -0.04576,0.05835 c -0.04356,0.05554 -0.07094,0.0732 -0.07094,0.04576 z m 4.53463,0 c 0,-0.0069 0.02626,-0.03318 0.05835,-0.05835 l 0.05835,-0.04576 -0.04576,0.05835 c -0.04356,0.05554 -0.07094,0.0732 -0.07094,0.04576 z m -7.206312,-0.0791 -0.04576,-0.05835 0.05835,0.04576 c 0.05554,0.04356 0.0732,0.07094 0.04576,0.07094 -0.0069,0 -0.03318,-0.02626 -0.05835,-0.05835 z m -7.537487,-0.06446 c 0.02407,-0.0096 0.05283,-0.0084 0.06391,0.0026 0.01108,0.01108 -0.0086,0.01896 -0.04376,0.01751 l -0.06391,-0.0026 z m 10.092469,-0.04391 c 0.03319,-0.03668 0.06785,-0.06669 0.07702,-0.06669 0.0092,0 -0.01049,0.03001 -0.04368,0.06669 -0.03319,0.03668 -0.06785,0.06668 -0.07702,0.06668 -0.0092,0 0.01049,-0.03001 0.04368,-0.06668 z m 0.47722,0.04391 c 0.02407,-0.0096 0.05283,-0.0084 0.06391,0.0026 0.01108,0.01108 -0.0086,0.01896 -0.04376,0.01751 l -0.06391,-0.0026 z m 5.521328,-0.05224 -0.06352,-0.07502 0.07502,0.06352 c 0.0705,0.05969 0.0902,0.08653 0.06352,0.08653 -0.0063,0 -0.04009,-0.03376 -0.07502,-0.07502 z m 10.549934,0.05224 c 0.02407,-0.0096 0.05283,-0.0084 0.06391,0.0026 0.01108,0.01108 -0.0086,0.01896 -0.04376,0.01751 l -0.06391,-0.0026 z m 0.166715,0 c 0.02407,-0.0096 0.05283,-0.0084 0.06391,0.0026 0.01108,0.01108 -0.0086,0.01896 -0.04376,0.01751 l -0.06391,-0.0026 z m 2.902828,-0.06892 -0.04576,-0.05835 0.05835,0.04576 c 0.03209,0.02517 0.05835,0.05143 0.05835,0.05835 0,0.02744 -0.02738,0.0098 -0.07094,-0.04576 z m -31.886278,-0.0052 -0.01869,-0.03023 0.06673,0.01745 c 0.07785,0.02036 0.0877,0.04302 0.01868,0.04302 -0.02642,0 -0.05645,-0.01361 -0.06673,-0.03023 z m 10.444815,0.0075 c 0.02407,-0.0096 0.05283,-0.0084 0.06391,0.0026 0.01108,0.01108 -0.0086,0.01896 -0.04376,0.01751 l -0.06391,-0.0026 z m 17.511258,0.01 c 0,-0.007 0.03003,-0.02063 0.06673,-0.03023 l 0.06673,-0.01745 -0.01868,0.03023 c -0.01795,0.02904 -0.114778,0.04376 -0.114778,0.01745 z m -10.900486,-0.07335 0.0026,-0.06391 0.01751,0.04376 c 0.0096,0.02407 0.0084,0.05283 -0.0026,0.06391 -0.01108,0.01108 -0.01896,-0.0086 -0.01751,-0.04376 z m 11.043394,-0.16401 c 2.5e-4,-0.09169 0.0067,-0.125246 0.01439,-0.07456 0.0077,0.05068 0.0075,0.125705 -4.55e-4,0.166715 -0.0079,0.04101 -0.01418,-4.59e-4 -0.01393,-0.09215 z m -6.736388,-0.03334 c 3.7e-4,-0.07335 0.0072,-0.09944 0.01517,-0.05796 0.008,0.04148 0.0077,0.101493 -6.73e-4,0.133372 -0.0083,0.03188 -0.01487,-0.0021 -0.0145,-0.07541 z M 13.974725,22.99056 c 0.03319,-0.03668 0.06785,-0.06669 0.07702,-0.06669 0.0092,0 -0.01049,0.03001 -0.04368,0.06669 -0.03319,0.03668 -0.06785,0.06669 -0.07702,0.06669 -0.0092,0 0.01049,-0.03001 0.04368,-0.06669 z m 0.616844,-0.07979 c 0,-0.0072 0.02328,-0.02204 0.05175,-0.03296 l 0.05175,-0.01986 -0.02037,0.03296 c -0.01958,0.03168 -0.08312,0.04686 -0.08312,0.01986 z m 0.783557,-0.02024 -0.06669,-0.02866 0.05638,-0.0023 c 0.03101,-0.0013 0.06566,0.01266 0.07699,0.031 0.0237,0.03834 0.02254,0.03834 -0.06669,0 z m 10.311897,-0.0056 c 0.01938,-0.01938 0.05491,-0.02867 0.07897,-0.02065 l 0.04374,0.01458 -0.07897,0.02065 -0.07896,0.02065 z"
         id="path5" />
      <path
         style="fill:#606060;fill-opacity:1"
         d="m 12.524996,85.43788 c -0.186472,-0.0744 -0.254256,-0.210296 -0.148623,-0.297964 l 0.05212,-0.04326 0.167234,0.06014 0.167234,0.06014 0.232343,-0.01662 0.232342,-0.01662 0.08179,-0.07684 0.08179,-0.07684 v -0.09581 -0.09581 l -0.08742,-0.08102 c -0.04808,-0.04456 -0.141857,-0.08972 -0.208393,-0.100358 -0.235227,-0.03761 -0.274087,-0.05139 -0.294424,-0.104382 -0.0113,-0.02945 -0.0053,-0.07777 0.01332,-0.107371 l 0.03387,-0.05382 0.173445,-0.0216 0.173444,-0.0216 0.06474,-0.05859 0.06474,-0.05859 v -0.09409 -0.09409 l -0.08038,-0.05267 -0.08038,-0.05267 -0.171592,-0.0013 -0.171592,-0.0013 -0.124924,0.08657 c -0.06871,0.04761 -0.142022,0.08657 -0.16292,0.08657 -0.0209,0 -0.06024,-0.03175 -0.08742,-0.07056 l -0.04942,-0.07056 0.03599,-0.07899 c 0.01979,-0.04344 0.102165,-0.111024 0.183047,-0.150178 l 0.147057,-0.07119 0.206251,-0.01509 0.206251,-0.01509 0.149773,0.07745 c 0.171941,0.08892 0.300355,0.260276 0.300355,0.400799 0,0.12253 -0.08091,0.280922 -0.167059,0.327026 -0.08802,0.04711 -0.08365,0.07931 0.01816,0.133797 0.114442,0.06125 0.215589,0.23351 0.215589,0.367168 0,0.06041 -0.0373,0.17348 -0.08289,0.251269 l -0.08289,0.141434 -0.14437,0.06989 -0.14437,0.06989 -0.314565,-0.0021 c -0.173012,-0.0012 -0.351768,-0.01696 -0.397238,-0.0351 z m 24.697728,-0.01045 c -0.06894,-0.0246 -0.148474,-0.06392 -0.176736,-0.08738 l -0.05138,-0.04264 0.01002,-0.08285 c 0.0055,-0.04557 0.03538,-0.09872 0.06638,-0.118125 l 0.05636,-0.03528 0.147354,0.07359 0.147355,0.07359 h 0.172469 c 0.09486,0 0.224597,-0.02178 0.28831,-0.0484 l 0.115841,-0.0484 0.03583,-0.09331 c 0.0197,-0.05132 0.02762,-0.145821 0.01759,-0.210006 l -0.01824,-0.1167 -0.08968,-0.07789 -0.08968,-0.07789 -0.153186,0.01377 c -0.08425,0.0076 -0.225858,0.03486 -0.31468,0.06063 l -0.161496,0.04686 -0.04784,-0.06542 -0.04784,-0.06542 0.0093,-0.417464 0.0093,-0.417465 0.383443,-0.01018 c 0.210893,-0.0056 0.447154,-9.38e-4 0.525023,0.01036 l 0.141579,0.02054 0.02172,0.08652 0.02172,0.08652 -0.0613,0.04483 -0.0613,0.04483 h -0.3438 -0.343727 v 0.152443 0.152442 l 0.184743,-0.02308 0.184744,-0.02308 0.147131,0.05619 c 0.180419,0.0689 0.335201,0.238747 0.384533,0.421951 l 0.03704,0.137564 -0.02177,0.12884 c -0.03116,0.184444 -0.144105,0.335682 -0.315253,0.422143 l -0.148503,0.07502 -0.268013,-0.0015 c -0.147408,-8.05e-4 -0.324422,-0.02159 -0.393366,-0.04619 z m 12.559284,-0.01539 c -0.145498,-0.08872 -0.239345,-0.219577 -0.297198,-0.414388 -0.06452,-0.217265 -0.06343,-0.465338 0.003,-0.689143 l 0.05298,-0.178397 0.19202,-0.19202 0.192019,-0.192019 0.193344,-0.05621 0.193343,-0.05621 0.152179,0.01715 0.152179,0.01715 0.06055,0.07478 0.06055,0.07478 -0.0473,0.07023 -0.0473,0.07023 -0.187177,-0.01122 -0.187177,-0.01122 -0.148129,0.07171 -0.148129,0.07171 -0.101754,0.15362 c -0.05597,0.08449 -0.101754,0.173313 -0.101754,0.197382 v 0.04376 l 0.13479,-0.07026 0.13479,-0.07026 0.161036,0.01547 0.161036,0.01547 0.105043,0.0748 c 0.05777,0.04114 0.136354,0.136169 0.174621,0.21118 l 0.06958,0.136382 -0.01484,0.17895 -0.01484,0.178949 -0.06689,0.09031 c -0.03679,0.04967 -0.116497,0.12407 -0.177123,0.165332 l -0.11023,0.07502 -0.220133,-1.25e-4 -0.220134,-1.25e-4 z m 0.537959,-0.285535 0.08184,-0.08184 v -0.1286 -0.128599 l -0.06761,-0.07257 c -0.03719,-0.03991 -0.102573,-0.08134 -0.145307,-0.09207 -0.104741,-0.02629 -0.302951,0.06084 -0.369512,0.162421 l -0.05413,0.08261 0.02183,0.08699 c 0.01201,0.04784 0.06636,0.124452 0.120779,0.170245 l 0.09895,0.08326 h 0.115657 0.115658 z m -39.689531,0.27523 c -0.02201,-0.02201 -0.04001,-0.06402 -0.04001,-0.09336 0,-0.02934 0.018,-0.07135 0.04001,-0.09336 l 0.04001,-0.04001 h 0.21006 0.21006 v -0.583501 c 0,-0.320925 -0.0038,-0.583322 -0.0083,-0.583104 -0.0046,2.18e-4 -0.08712,0.02137 -0.183411,0.047 l -0.175075,0.04661 -0.0709,-0.05741 -0.0709,-0.05741 0.02306,-0.07265 0.02306,-0.07264 0.172901,-0.0495 c 0.0951,-0.02723 0.266677,-0.07105 0.381293,-0.09738 l 0.208393,-0.04788 v 0.763929 0.763929 h 0.215556 0.215555 l 0.03452,0.06449 c 0.04464,0.08341 0.04411,0.08787 -0.01788,0.149854 l -0.0524,0.0524 H 11.22826 10.670481 Z m 12.336861,0 c -0.05237,-0.05237 -0.05101,-0.142756 0.0028,-0.187428 0.02356,-0.01955 0.132339,-0.04014 0.241736,-0.04576 l 0.198904,-0.01021 0.0092,-0.532147 c 0.0051,-0.292681 0.0022,-0.550385 -0.0063,-0.572675 l -0.01555,-0.04053 -0.166456,0.04391 -0.166457,0.04391 -0.06894,-0.04829 c -0.08489,-0.05946 -0.08944,-0.164567 -0.009,-0.207623 0.03298,-0.01765 0.18677,-0.06393 0.341764,-0.10284 0.154994,-0.03891 0.308065,-0.07853 0.340157,-0.08803 l 0.05835,-0.01728 v 0.767609 0.76761 l 0.225065,0.0099 0.225064,0.0099 0.01101,0.09641 0.011,0.09641 -0.04435,0.02811 c -0.02439,0.01546 -0.29267,0.02834 -0.596173,0.02863 l -0.551825,5.11e-4 z m 2.266312,0.01088 -0.04435,-0.02811 0.01101,-0.09641 0.01101,-0.09641 0.133371,-0.01667 0.133372,-0.01667 v -0.05001 -0.05001 l -0.391779,-0.0094 -0.391778,-0.0094 V 84.919819 84.80012 l 0.355543,-0.564273 0.355544,-0.564273 0.186278,0.0098 0.186278,0.0098 0.0091,0.534255 0.0091,0.534255 0.07423,0.03257 0.07423,0.03257 v 0.08336 0.08336 l -0.07502,0.03291 c -0.09618,0.04219 -0.09627,0.12531 -1.95e-4,0.167572 0.08759,0.03853 0.114297,0.13245 0.05721,0.20123 l -0.04018,0.04841 -0.304338,-5.11e-4 c -0.167387,-2.81e-4 -0.324296,-0.01316 -0.348688,-0.02863 z m 0.261077,-0.954479 c 0,-0.174217 -0.01125,-0.316732 -0.02501,-0.316702 -0.02088,4.6e-5 -0.367807,0.522535 -0.402893,0.606775 -0.0061,0.01468 0.08766,0.02668 0.208393,0.02668 h 0.219507 z m 9.810228,0.944359 c -0.05304,-0.05304 -0.05205,-0.143272 0.0021,-0.188184 0.02356,-0.01955 0.132338,-0.04014 0.241735,-0.04576 l 0.198904,-0.01021 0.0092,-0.532147 c 0.0051,-0.292681 0.0022,-0.550385 -0.0063,-0.572675 l -0.01555,-0.04053 -0.160381,0.04096 c -0.204067,0.05211 -0.27181,0.03669 -0.298052,-0.06787 l -0.02102,-0.08374 0.046,-0.04271 c 0.05203,-0.04831 0.717112,-0.21969 0.744865,-0.191937 0.0099,0.0099 0.01801,0.352389 0.01801,0.761075 v 0.743067 l 0.204927,0.0099 0.204926,0.0099 0.03664,0.05835 0.03664,0.05835 -0.03677,0.05835 -0.03677,0.05835 -0.564147,0.0091 -0.564146,0.0091 z m 12.336861,0 c -0.0519,-0.0519 -0.05223,-0.135998 -7.56e-4,-0.187476 l 0.04001,-0.04001 h 0.193388 0.193389 v -0.580483 -0.580482 l -0.159484,0.04207 -0.159485,0.04207 -0.07391,-0.02734 -0.07392,-0.02734 v -0.08035 c 0,-0.04419 0.01875,-0.09498 0.04168,-0.112858 0.02292,-0.01788 0.195196,-0.07041 0.382828,-0.116744 l 0.341148,-0.08424 0.009,0.754512 0.009,0.754511 0.213317,0.01667 0.213317,0.01667 0.03658,0.05835 0.03658,0.05835 -0.03677,0.05835 -0.03677,0.05835 -0.564147,0.0091 -0.564146,0.0091 z M 11.727279,73.128402 c -0.06243,-0.0221 -0.129869,-0.06644 -0.149872,-0.09854 l -0.03637,-0.05835 0.03685,-0.05835 0.03685,-0.05835 0.233111,-6.48e-4 0.23311,-6.48e-4 0.122094,-0.08271 c 0.124385,-0.08426 0.260155,-0.259478 0.301153,-0.388653 l 0.02275,-0.07167 -0.160169,0.08541 -0.160168,0.08541 -0.158793,-0.02381 -0.158794,-0.02381 -0.128823,-0.122861 -0.128823,-0.12286 -0.04315,-0.144595 -0.04315,-0.144596 0.04139,-0.15549 0.04139,-0.155491 0.10134,-0.10493 0.10134,-0.104931 0.145557,-0.04075 0.145557,-0.04075 0.148873,0.02232 c 0.198,0.02969 0.35251,0.139043 0.452641,0.320348 l 0.08215,0.148752 0.0133,0.30345 0.0133,0.303449 -0.06747,0.152537 c -0.08871,0.200534 -0.308466,0.435511 -0.483388,0.516859 -0.0771,0.03586 -0.207706,0.07403 -0.290229,0.08482 l -0.150043,0.01963 z m 0.661514,-1.050646 0.112034,-0.09353 -0.02284,-0.121753 -0.02284,-0.121753 -0.08661,-0.06813 -0.08661,-0.06813 h -0.121455 c -0.0668,0 -0.154204,0.02294 -0.19423,0.05097 l -0.07277,0.05097 -0.02095,0.111691 -0.02095,0.111691 0.05226,0.101067 c 0.06025,0.116508 0.09296,0.134186 0.254984,0.137802 l 0.117959,0.0026 z m 12.809902,1.060318 C 24.959828,73.081861 24.78811,72.878457 24.725599,72.57768 l -0.03942,-0.189665 0.01673,-0.266743 c 0.01933,-0.308215 0.08504,-0.48879 0.233803,-0.642494 l 0.105503,-0.109009 0.133142,-0.03585 c 0.163823,-0.04411 0.364374,-0.01502 0.507902,0.07369 l 0.108296,0.06693 0.09204,0.188129 0.09204,0.188129 0.01336,0.305471 0.01336,0.305471 -0.05407,0.185986 c -0.05885,0.20245 -0.178158,0.367591 -0.315873,0.437234 -0.12338,0.06239 -0.301576,0.08422 -0.433727,0.05312 z m 0.301018,-0.30262 c 0.03703,-0.01982 0.09573,-0.09859 0.130447,-0.17505 l 0.06312,-0.139017 5.46e-4,-0.266743 c 6.78e-4,-0.33078 -0.04268,-0.493813 -0.154769,-0.581984 l -0.08671,-0.0682 H 25.34464 25.236934 l -0.08671,0.0682 c -0.112091,0.08817 -0.155447,0.251204 -0.154769,0.581984 l 5.46e-4,0.266743 0.06279,0.138279 c 0.03453,0.07605 0.09047,0.15437 0.124304,0.174036 0.07996,0.04648 0.231478,0.04731 0.316613,0.0018 z m -2.531677,0.23016 c -0.05188,-0.05188 -0.05221,-0.135987 -7.39e-4,-0.187459 l 0.04001,-0.04001 h 0.21006 0.210061 v -0.566829 -0.566829 h -0.05857 c -0.03221,0 -0.110642,0.01493 -0.174285,0.03319 -0.06364,0.01825 -0.142282,0.02475 -0.174753,0.01445 -0.06955,-0.02207 -0.115604,-0.171275 -0.06767,-0.219211 0.0353,-0.0353 0.61802,-0.193394 0.717012,-0.194528 l 0.05835,-6.68e-4 v 0.750214 0.750215 h 0.195975 0.195974 l 0.03999,0.04818 c 0.02199,0.0265 0.03508,0.08276 0.02909,0.125036 l -0.0109,0.07686 -0.584428,0.0091 -0.584428,0.0091 z m 12.336122,-7.39e-4 c -0.05237,-0.05237 -0.05101,-0.142756 0.0028,-0.187427 0.02356,-0.01955 0.132338,-0.04014 0.241735,-0.04576 l 0.198904,-0.01021 0.0092,-0.562886 0.0092,-0.562887 -0.125862,0.02105 c -0.06922,0.01158 -0.157385,0.02972 -0.195913,0.04033 l -0.07005,0.01928 -0.05498,-0.05498 c -0.07363,-0.07363 -0.06955,-0.173453 0.0088,-0.215391 0.06831,-0.03655 0.606603,-0.168259 0.687707,-0.168259 h 0.04872 v 0.750214 0.750215 h 0.193389 0.193389 l 0.04001,0.04001 c 0.05716,0.05716 0.04943,0.18264 -0.01273,0.206493 -0.02901,0.01113 -0.296084,0.02024 -0.593503,0.02024 H 35.34417 Z m 1.767172,0 c -0.02201,-0.02201 -0.04001,-0.06402 -0.04001,-0.09336 0,-0.02934 0.018,-0.07135 0.04001,-0.09336 l 0.04001,-0.04001 h 0.21006 0.21006 v -0.566829 -0.566829 l -0.05835,1.86e-4 c -0.03209,1.02e-4 -0.117716,0.01667 -0.190273,0.03681 l -0.131923,0.03663 -0.0598,-0.07385 c -0.03289,-0.04062 -0.05957,-0.08344 -0.05929,-0.09516 0.0018,-0.07409 0.09856,-0.120095 0.428048,-0.203459 l 0.37167,-0.09404 v 0.76327 0.763271 h 0.215556 0.215556 l 0.03569,0.06669 0.03569,0.06668 -0.03569,0.06669 -0.03569,0.06669 H 37.687 37.111342 Z m 10.543453,-0.04301 -0.02122,-0.08456 0.04115,-0.04958 0.04115,-0.04958 h 0.195974 0.195975 V 72.257662 71.67718 l -0.17196,0.04536 -0.17196,0.04536 -0.06144,-0.03288 -0.06144,-0.03288 v -0.08101 -0.08101 l 0.06443,-0.03448 c 0.06574,-0.03518 0.585708,-0.167265 0.66014,-0.167689 l 0.04104,-2.33e-4 0.009,0.741878 0.009,0.741879 0.213317,0.01667 0.213317,0.01667 0.03658,0.05835 0.03658,0.05835 -0.03677,0.05835 -0.03677,0.05835 -0.587413,0.0091 -0.587412,0.0091 z m 1.653879,-0.04201 c 2.81e-4,-0.06877 0.01153,-0.140144 0.02501,-0.15861 0.01347,-0.01847 0.174083,-0.15288 0.35691,-0.298699 0.182827,-0.145819 0.404141,-0.334262 0.491807,-0.418761 l 0.159394,-0.153635 v -0.103739 -0.103738 l -0.08785,-0.06911 -0.08785,-0.06911 h -0.14672 c -0.174535,0 -0.28936,0.0671 -0.345103,0.201682 l -0.04076,0.0984 h -0.0919 c -0.05055,0 -0.110098,-0.02193 -0.132338,-0.04872 l -0.04044,-0.04872 0.03881,-0.117584 c 0.05107,-0.154739 0.237915,-0.304753 0.439943,-0.353219 l 0.16259,-0.03901 0.124135,0.0227 c 0.06827,0.01248 0.185951,0.05858 0.261503,0.102433 l 0.137369,0.07974 0.05814,0.12253 0.05814,0.12253 -0.0161,0.167543 -0.0161,0.167544 -0.230162,0.219542 c -0.126589,0.120748 -0.312355,0.290015 -0.412814,0.376147 l -0.182652,0.156604 0.29175,0.0018 0.29175,0.0018 v -0.05073 c 0,-0.0279 0.03745,-0.06779 0.08322,-0.08865 l 0.08322,-0.03792 0.06682,0.06047 0.06682,0.06047 v 0.161547 0.161547 H 49.95168 49.268151 Z M 11.857453,60.81164 c -0.171626,-0.0288 -0.292523,-0.08128 -0.365015,-0.158446 l -0.07474,-0.07955 0.02152,-0.06782 c 0.01184,-0.0373 0.04961,-0.07673 0.08395,-0.08763 l 0.06242,-0.01981 0.127099,0.06812 0.127099,0.06812 h 0.210543 0.210542 l 0.09433,-0.04878 c 0.111088,-0.05745 0.135756,-0.11013 0.135756,-0.28994 v -0.133209 l -0.09746,-0.09746 -0.09746,-0.09746 h -0.11803 c -0.06492,0 -0.191671,0.02903 -0.281677,0.0645 l -0.163645,0.0645 -0.07099,-0.04972 -0.07099,-0.04972 v -0.431567 -0.431566 h 0.515642 0.515641 l 0.03569,0.06668 0.03569,0.06669 -0.03569,0.06669 -0.03569,0.06669 H 12.25639 11.890791 v 0.162237 0.162237 l 0.133372,-0.02439 c 0.157617,-0.02882 0.341959,4.6e-4 0.49051,0.07792 l 0.107068,0.05583 0.08465,0.144451 0.08465,0.144451 v 0.173449 0.173449 l -0.06593,0.129235 c -0.03626,0.07108 -0.109032,0.159926 -0.161711,0.197437 -0.156471,0.111417 -0.445067,0.158184 -0.705959,0.114401 z m 12.50767,-0.01034 c -0.167568,-0.03956 -0.277784,-0.134192 -0.370866,-0.318421 l -0.08336,-0.164981 -0.01146,-0.286636 -0.01146,-0.286637 0.0734,-0.17062 0.0734,-0.170619 0.163833,-0.153248 c 0.207247,-0.193855 0.35929,-0.258544 0.617379,-0.262675 l 0.204885,-0.0033 0.07019,0.06352 c 0.07847,0.071 0.09175,0.168664 0.02852,0.209593 -0.02292,0.01484 -0.139206,0.02711 -0.258407,0.02728 l -0.216729,3.08e-4 -0.12728,0.07882 c -0.127248,0.0788 -0.263794,0.255496 -0.304761,0.394373 l -0.02174,0.0737 0.154081,-0.08612 0.15408,-0.08612 0.15164,0.01709 c 0.0834,0.0094 0.191188,0.04638 0.239524,0.08217 0.121675,0.09011 0.232159,0.261043 0.258101,0.399322 l 0.0218,0.11619 -0.03916,0.130708 c -0.02154,0.07189 -0.08349,0.18119 -0.137658,0.24289 l -0.0985,0.112182 -0.148164,0.03731 c -0.165674,0.04172 -0.218792,0.04226 -0.381283,0.0039 z m 0.38727,-0.317646 c 0.08858,-0.06204 0.125746,-0.233489 0.0779,-0.359327 l -0.0353,-0.09285 -0.105964,-0.04455 -0.105964,-0.04455 -0.101709,0.02917 c -0.05594,0.01604 -0.137851,0.06531 -0.182026,0.109486 l -0.08032,0.08032 0.02223,0.118511 0.02223,0.118512 0.08661,0.06813 0.08661,0.06813 h 0.121456 c 0.0668,0 0.154204,-0.02294 0.194229,-0.05097 z m 24.232344,0.33654 c -0.01834,-0.0071 -0.07433,-0.02202 -0.124424,-0.03306 -0.129742,-0.02859 -0.315058,-0.202574 -0.359636,-0.337646 l -0.038,-0.115148 0.02277,-0.103661 c 0.01252,-0.05701 0.07558,-0.162119 0.140132,-0.233568 l 0.117363,-0.129908 -0.08669,-0.06819 c -0.04768,-0.0375 -0.103855,-0.125479 -0.124833,-0.195498 l -0.03814,-0.127307 0.03937,-0.119309 c 0.02166,-0.06562 0.09003,-0.163784 0.151942,-0.218143 l 0.112566,-0.09883 0.177329,-0.03969 0.17733,-0.03968 0.143415,0.03862 0.143416,0.03862 0.130539,0.117934 0.130539,0.117934 0.02128,0.113453 c 0.02908,0.155006 -0.0025,0.259082 -0.119005,0.39173 l -0.09864,0.112349 0.08562,0.07998 c 0.180672,0.168778 0.221332,0.348133 0.124961,0.551219 l -0.05435,0.114541 -0.13832,0.08106 -0.13832,0.08106 -0.182434,0.01707 c -0.100339,0.0094 -0.197439,0.01122 -0.215777,0.0041 z m 0.40163,-0.367409 0.08184,-0.08184 v -0.08245 -0.08245 l -0.08877,-0.06983 c -0.123566,-0.0972 -0.229063,-0.116951 -0.381181,-0.07138 l -0.130486,0.03909 -0.05356,0.08174 -0.05355,0.08174 0.02077,0.08276 c 0.02778,0.110692 0.168228,0.181509 0.363203,0.183137 l 0.159894,0.0013 z m -0.143615,-0.720032 c 0.133822,-0.03717 0.192114,-0.111144 0.192114,-0.243815 v -0.08313 l -0.08785,-0.06911 -0.08785,-0.06911 h -0.14105 -0.141049 l -0.08785,0.06911 -0.08785,0.06911 v 0.0918 0.0918 l 0.07502,0.06917 c 0.06374,0.05877 0.107275,0.0791 0.225064,0.105116 0.0092,0.002 0.07276,-0.0119 0.141315,-0.03093 z M 36.72292,60.77706 c -0.03208,-0.0077 -0.06639,-0.04658 -0.07623,-0.0865 l -0.0179,-0.07258 0.21794,-0.611823 c 0.119867,-0.336502 0.21794,-0.632837 0.21794,-0.658521 v -0.0467 h -0.307169 -0.30717 l -0.07221,0.09056 -0.07221,0.09056 -0.08742,-0.03983 -0.08742,-0.03983 v -0.184101 -0.1841 h 0.633515 0.633514 v 0.145198 0.145199 l -0.244608,0.694549 -0.244608,0.694549 -0.06381,0.03864 c -0.0351,0.02125 -0.09006,0.03238 -0.122141,0.02473 z M 36.353458,48.450061 c -0.08858,-0.02381 -0.184298,-0.06654 -0.212716,-0.09496 l -0.05167,-0.05167 0.02063,-0.08219 c 0.02526,-0.100622 0.117691,-0.129514 0.22468,-0.07023 l 0.08009,0.04438 0.260063,0.0012 0.260063,0.0012 0.09433,-0.04878 c 0.100802,-0.05213 0.135756,-0.111745 0.135756,-0.231549 0,-0.135758 -0.225695,-0.286499 -0.428959,-0.286499 -0.104755,0 -0.171212,-0.0539 -0.171212,-0.138867 0,-0.07836 0.100004,-0.127876 0.258263,-0.127876 h 0.129277 l 0.07297,-0.06799 c 0.07261,-0.06765 0.09417,-0.18216 0.04746,-0.252116 -0.04614,-0.0691 -0.170193,-0.113356 -0.317738,-0.113356 h -0.147582 l -0.122833,0.08336 c -0.06756,0.04585 -0.141673,0.08336 -0.164699,0.08336 -0.06402,0 -0.121888,-0.07195 -0.121888,-0.151544 0,-0.08813 0.07928,-0.162685 0.247924,-0.233151 l 0.128784,-0.05381 0.210853,-0.0012 0.210853,-0.0012 0.125943,0.06499 c 0.06927,0.03574 0.159703,0.114668 0.200965,0.175385 l 0.07502,0.110395 v 0.131775 0.131775 l -0.115284,0.115284 -0.115283,0.115284 0.148626,0.142409 0.148627,0.142409 v 0.123487 c 0,0.364844 -0.296124,0.591008 -0.766886,0.585708 -0.100862,-0.0011 -0.255857,-0.02154 -0.344432,-0.04535 z m -24.787755,-0.01994 -0.07502,-0.03016 v -0.08035 c 0,-0.04419 0.01927,-0.09634 0.04283,-0.115896 0.02356,-0.01955 0.132338,-0.04014 0.241735,-0.04576 l 0.198904,-0.01021 0.0091,-0.558493 0.0091,-0.558493 h -0.03161 c -0.01738,0 -0.107074,0.01742 -0.199314,0.03871 l -0.167708,0.03871 -0.05156,-0.0428 C 11.5138,47.041839 11.4906,46.986589 11.4906,46.942596 v -0.07999 l 0.07502,-0.03163 c 0.06214,-0.0262 0.633088,-0.166997 0.677188,-0.166997 0.0074,0 0.01744,0.333845 0.02238,0.741879 l 0.009,0.741878 0.198904,0.01021 c 0.109397,0.0056 0.218178,0.02621 0.241736,0.04576 0.02356,0.01955 0.04283,0.07159 0.04283,0.115647 v 0.0801 l -0.08553,0.03252 c -0.106732,0.04058 -1.004649,0.03907 -1.10648,-0.0019 z m 12.161998,-0.123997 1.87e-4,-0.158379 0.246207,-0.190077 c 0.417755,-0.322515 0.753617,-0.631532 0.773801,-0.711951 0.02904,-0.115706 -0.01393,-0.210054 -0.120831,-0.265338 -0.205266,-0.106147 -0.441749,-0.03623 -0.560985,0.165862 -0.07412,0.125619 -0.10517,0.138107 -0.207386,0.0834 L 23.7942,47.19513 v -0.07725 c 0,-0.117848 0.136472,-0.294926 0.294556,-0.382199 l 0.141933,-0.07836 h 0.193334 0.193334 l 0.135771,0.06927 c 0.167411,0.08541 0.275951,0.232418 0.299118,0.405136 l 0.0176,0.131181 -0.04211,0.101669 c -0.04305,0.103926 -0.379328,0.434384 -0.648135,0.636913 -0.08243,0.06211 -0.150338,0.124173 -0.150905,0.137927 -5.67e-4,0.01375 0.124756,0.02501 0.278495,0.02501 h 0.279525 l 0.01804,-0.06899 0.01804,-0.06899 0.110884,0.01064 0.110885,0.01064 0.0099,0.208393 0.0099,0.208393 h -0.668448 -0.668449 z m 25.315386,0.123997 -0.07502,-0.03016 v -0.07776 c 0,-0.107543 0.06052,-0.157786 0.190055,-0.157786 h 0.110031 v -0.05001 -0.05002 h -0.400114 -0.400115 v -0.130543 -0.130544 l 0.345353,-0.544649 0.345354,-0.54465 0.204804,-0.0099 0.204804,-0.0099 v 0.535902 0.535902 l 0.08336,0.03169 0.08336,0.03169 v 0.0849 0.0849 l -0.08336,0.03798 c -0.04585,0.02089 -0.08336,0.05567 -0.08336,0.07729 0,0.02162 0.03751,0.0564 0.08336,0.07729 l 0.08336,0.03798 v 0.0849 0.0849 l -0.08553,0.03252 c -0.105774,0.04022 -0.504701,0.03899 -0.606337,-0.0019 z m 0.225064,-0.982576 c 0,-0.174216 -0.0074,-0.316757 -0.01647,-0.316757 -0.01308,0 -0.268258,0.381712 -0.395649,0.591836 l -0.02527,0.04168 h 0.218697 0.218696 z m -21.27275,-23.03635 v -0.08229 l 0.07502,-0.01065 0.07502,-0.01065 0.0093,-0.456024 0.0093,-0.456024 -0.07595,-0.01078 -0.07595,-0.01078 v -0.08336 -0.08336 l 0.163488,-0.01037 0.163489,-0.01037 0.02234,0.03614 0.02234,0.03614 0.121526,-0.05078 c 0.167348,-0.06992 0.284397,-0.0637 0.4559,0.02425 l 0.146305,0.07502 0.06277,0.1167 0.06277,0.1167 -0.01589,0.128313 -0.01589,0.128314 -0.07775,0.08438 c -0.156634,0.169974 -0.420372,0.221627 -0.647362,0.126784 l -0.117337,-0.04903 0.01004,0.174063 0.01004,0.174062 0.1167,0.01667 0.116701,0.01667 v 0.06669 0.06669 l -0.308422,0.0096 -0.308422,0.0096 z m 0.903147,-0.596466 c 0.0291,-0.02234 0.07104,-0.07466 0.09321,-0.116277 l 0.0403,-0.07566 -0.04319,-0.09008 c -0.02376,-0.04954 -0.0807,-0.109862 -0.12655,-0.13404 l -0.08336,-0.04396 -0.13332,0.01592 -0.133319,0.01592 -0.07507,0.08728 c -0.09693,0.112694 -0.09498,0.20006 0.0068,0.301804 l 0.08184,0.08184 0.159894,-0.0011 c 0.08794,-5.83e-4 0.183701,-0.01934 0.212798,-0.04168 z m 0.600448,0.463339 -0.03834,-0.0462 0.3617,-0.745693 c 0.198934,-0.410131 0.38671,-0.766127 0.417278,-0.791101 0.06588,-0.05382 0.156457,-0.02798 0.156457,0.04464 0,0.02824 -0.172612,0.396312 -0.383582,0.817947 l -0.383582,0.766608 h -0.04579 c -0.02519,0 -0.06305,-0.02079 -0.08413,-0.0462 z m -15.29087,-0.191915 c -0.07335,-0.01725 -0.163505,-0.02387 -0.200335,-0.01471 -0.03683,0.0092 -0.08651,0.0046 -0.1104,-0.0102 l -0.04344,-0.02685 0.01037,-0.163189 0.01037,-0.163188 0.06168,-0.01172 0.06168,-0.01172 0.08921,0.106854 0.08921,0.106855 0.175232,0.0026 0.175232,0.0026 0.06696,-0.06696 0.06696,-0.06696 -0.0198,-0.05161 c -0.022,-0.05733 -0.155074,-0.127226 -0.242769,-0.127513 -0.130461,-4.28e-4 -0.324499,-0.07902 -0.412589,-0.167107 l -0.09432,-0.09432 V 23.223088 23.11716 l 0.110736,-0.110736 0.110736,-0.110736 0.129656,-0.02432 0.129655,-0.02432 0.134326,0.03585 0.134325,0.03585 0.04164,-0.03456 c 0.0229,-0.01901 0.06509,-0.02556 0.09376,-0.01456 l 0.05212,0.02 -0.01001,0.192125 -0.01001,0.192124 -0.0731,0.0104 -0.0731,0.0104 -0.05071,-0.09805 c -0.0742,-0.143484 -0.224967,-0.181311 -0.401704,-0.100784 l -0.08493,0.0387 v 0.07392 c 0,0.102477 0.05342,0.137102 0.274249,0.17775 0.225763,0.04156 0.377499,0.113888 0.424963,0.202577 0.01888,0.03528 0.03433,0.114843 0.03433,0.176802 v 0.112654 l -0.09631,0.09227 c -0.05297,0.05075 -0.154247,0.105712 -0.225064,0.122143 -0.149682,0.03473 -0.153388,0.03466 -0.328815,-0.0066 z m 1.260187,0.0011 c -0.05878,-0.017 -0.130049,-0.06399 -0.158379,-0.10444 l -0.05151,-0.07354 v -0.259324 -0.259324 h -0.08218 -0.08218 l -0.03296,-0.06158 -0.03295,-0.06158 0.03845,-0.03845 c 0.02115,-0.02115 0.0721,-0.03845 0.113222,-0.03845 h 0.07477 l 0.01025,-0.141707 0.01025,-0.141707 h 0.08336 0.08336 l 0.01019,0.140338 0.01019,0.140338 0.256195,0.0097 0.256195,0.0097 0.01198,0.06269 c 0.01761,0.09218 -0.05155,0.119614 -0.303005,0.120185 l -0.225064,5.1e-4 v 0.232227 0.232227 l 0.0705,0.03773 0.0705,0.03773 0.150575,-0.02258 c 0.08282,-0.01242 0.186684,-0.03903 0.230818,-0.05914 l 0.08024,-0.03656 0.05235,0.05236 0.05236,0.05235 -0.06674,0.06674 c -0.03671,0.03671 -0.144083,0.08333 -0.238613,0.103601 -0.197811,0.04242 -0.245277,0.04242 -0.392161,-5.6e-5 z m 1.124503,-0.01973 c -0.06381,-0.03303 -0.138835,-0.101313 -0.166714,-0.151744 l -0.05069,-0.09169 0.05032,-0.09169 c 0.02768,-0.05043 0.117705,-0.126085 0.200058,-0.168119 l 0.149732,-0.07642 0.183386,0.0065 0.183386,0.0065 -0.01101,-0.04648 c -0.0234,-0.09881 -0.17173,-0.122792 -0.412912,-0.06677 l -0.123835,0.02876 -0.05663,-0.04141 -0.05663,-0.04141 0.01997,-0.05203 0.01997,-0.05203 0.189486,-0.03934 0.189485,-0.03934 0.13773,0.02141 c 0.251417,0.03909 0.321117,0.143401 0.321117,0.480599 v 0.233273 l 0.07502,0.01065 0.07502,0.01066 0.01028,0.07216 0.01028,0.07216 -0.06683,0.02121 c -0.03676,0.01167 -0.146414,0.01777 -0.243679,0.01356 -0.09727,-0.0042 -0.251868,0.0033 -0.343561,0.0167 l -0.166714,0.02435 z m 0.493202,-0.230576 c 0.0424,-0.02775 0.07122,-0.06825 0.06405,-0.09001 l -0.01304,-0.03955 -0.192835,-0.01011 -0.192835,-0.01011 -0.06294,0.05696 c -0.07877,0.07129 -0.08067,0.136695 -0.0046,0.158432 0.09237,0.02639 0.317809,-0.01038 0.402185,-0.06561 z m 2.306924,0.267376 C 19.17369,24.023793 19.126199,23.93482 19.126199,23.604596 v -0.209538 l -0.09169,-0.01055 -0.09169,-0.01055 v -0.08336 -0.08336 l 0.09169,-0.01055 0.09169,-0.01055 v -0.112104 c 0,-0.06166 0.02355,-0.135652 0.05233,-0.164433 l 0.05233,-0.05233 0.06437,0.03445 0.06437,0.03445 v 0.132198 0.132198 h 0.229317 0.229317 l 0.04151,0.05002 0.04151,0.05001 -0.04151,0.05001 -0.04151,0.05001 h -0.229317 -0.229317 v 0.249437 0.249436 l 0.08753,0.02197 c 0.04814,0.01208 0.156923,0.0037 0.241736,-0.01863 0.08481,-0.02233 0.191715,-0.04318 0.237561,-0.04634 l 0.08336,-0.0057 0.01009,0.0707 0.01009,0.0707 -0.141659,0.05668 c -0.152094,0.06086 -0.413778,0.09545 -0.49536,0.06548 z m 5.201487,-0.01639 c -0.06419,-0.01618 -0.146833,-0.02277 -0.183663,-0.01465 -0.03683,0.0081 -0.08651,0.0027 -0.1104,-0.01207 l -0.04344,-0.02685 0.01037,-0.163489 0.01037,-0.163488 0.07745,-0.01097 0.07745,-0.01097 0.01705,0.06519 c 0.02425,0.09274 0.164414,0.157339 0.333294,0.153614 l 0.145004,-0.0032 0.06665,-0.06032 c 0.03666,-0.03318 0.06665,-0.07193 0.06665,-0.08611 0,-0.06687 -0.118907,-0.128091 -0.347566,-0.178963 l -0.250021,-0.05563 -0.08465,-0.1006 c -0.09596,-0.114039 -0.106803,-0.222669 -0.03592,-0.359749 l 0.04873,-0.09424 0.135327,-0.05415 c 0.156154,-0.06248 0.291293,-0.06875 0.420791,-0.01951 l 0.0911,0.03464 0.02682,-0.04297 0.02682,-0.04297 0.0593,0.03698 0.0593,0.03698 v 0.179752 0.179751 l -0.08762,0.01016 -0.08762,0.01016 -0.01994,-0.07946 C 24.993295,23.124091 24.870303,23.05722 24.72621,23.05722 h -0.09846 l -0.06913,0.06913 -0.06913,0.06913 0.04795,0.07222 0.04795,0.07222 0.229569,0.05255 c 0.360363,0.08248 0.446298,0.15184 0.446298,0.360201 v 0.09966 l -0.08289,0.09851 -0.08289,0.09851 -0.148602,0.03742 c -0.167552,0.04219 -0.189474,0.04226 -0.352472,0.0012 z m 1.288453,0.0036 c -0.0524,-0.01659 -0.123672,-0.05586 -0.158378,-0.08727 l -0.0631,-0.05711 v -0.278247 -0.278247 h -0.07928 c -0.0436,0 -0.09795,-0.02251 -0.120783,-0.05001 l -0.04151,-0.05001 0.04151,-0.05001 c 0.02283,-0.02751 0.07632,-0.05002 0.118866,-0.05002 h 0.07736 l 0.01025,-0.141707 0.01025,-0.141707 h 0.08336 0.08336 l 0.01019,0.140338 0.01019,0.140338 0.256196,0.0097 0.256195,0.0097 0.01198,0.06269 c 0.01761,0.09218 -0.05155,0.119614 -0.303005,0.120185 l -0.225064,5.1e-4 v 0.234115 0.234115 l 0.08669,0.0395 0.08669,0.0395 0.21667,-0.05683 c 0.119169,-0.03126 0.2302,-0.04847 0.246735,-0.03825 0.01654,0.01022 0.03007,0.04847 0.03007,0.085 v 0.06642 l -0.111104,0.04642 c -0.149389,0.06242 -0.417288,0.08793 -0.534329,0.05087 z m 1.264874,-0.01685 c -0.07193,-0.02563 -0.176956,-0.09278 -0.2334,-0.14922 L 26.81173,23.822842 v -0.180555 -0.180555 l 0.09736,-0.101626 c 0.05355,-0.05589 0.162108,-0.126352 0.24124,-0.156573 l 0.143876,-0.05495 0.140663,0.02249 c 0.186366,0.0298 0.335384,0.125817 0.409837,0.26407 l 0.06072,0.112742 -0.01907,0.14215 -0.01907,0.14215 -0.106238,0.109609 -0.106238,0.10961 -0.144559,0.0364 c -0.17957,0.04522 -0.200943,0.04444 -0.362503,-0.01312 z m 0.36517,-0.198817 c 0.06356,-0.02656 0.132497,-0.08547 0.153204,-0.130913 l 0.03765,-0.08263 -0.0218,-0.08685 -0.0218,-0.08685 -0.107469,-0.06553 c -0.128203,-0.07817 -0.219847,-0.08241 -0.375496,-0.01737 l -0.115841,0.0484 -0.03464,0.0911 -0.03464,0.0911 0.04055,0.09791 0.04055,0.09791 0.102659,0.0447 c 0.133219,0.05801 0.196335,0.05782 0.337055,-9.71e-4 z m 4.83372,0.219056 c -0.160772,-0.04151 -0.249235,-0.10112 -0.318417,-0.214581 l -0.06478,-0.106237 9.5e-5,-0.133371 9.5e-5,-0.133372 0.06284,-0.09532 c 0.08332,-0.126375 0.220119,-0.212759 0.379606,-0.239704 l 0.13019,-0.022 0.143706,0.04023 0.143706,0.04024 0.105873,0.109233 0.105873,0.109233 0.01843,0.137405 0.01843,0.137404 h -0.440626 -0.440626 l 0.01293,0.04168 c 0.0071,0.02292 0.07067,0.07027 0.141245,0.105209 l 0.128315,0.06353 0.259085,-0.04208 c 0.142497,-0.02314 0.275243,-0.03209 0.294991,-0.01988 0.06959,0.04301 0.03466,0.122206 -0.07389,0.167563 -0.13912,0.05813 -0.4763,0.08857 -0.607074,0.05481 z m 0.461713,-0.588794 c -0.02669,-0.06954 -0.18758,-0.148837 -0.301679,-0.148685 -0.10174,1.36e-4 -0.310077,0.111736 -0.310077,0.1661 v 0.03383 h 0.315711 0.31571 z m 0.805316,0.582396 c -0.05502,-0.01647 -0.124168,-0.02234 -0.153671,-0.01305 -0.07835,0.02468 -0.135853,-0.06404 -0.123683,-0.190824 l 0.01061,-0.110543 0.07603,-0.01079 0.07603,-0.01079 0.06124,0.07562 0.06124,0.07562 0.186097,0.0018 0.186097,0.0018 0.04341,-0.04392 0.04341,-0.04392 -0.06472,-0.04777 c -0.0356,-0.02627 -0.110619,-0.04892 -0.166714,-0.05033 -0.17292,-0.0043 -0.358599,-0.07686 -0.425192,-0.166052 l -0.06354,-0.08511 0.0335,-0.08812 c 0.01843,-0.04847 0.07463,-0.115069 0.124889,-0.148001 l 0.09138,-0.05988 0.293903,-0.002 c 0.161647,-0.0011 0.309785,0.0079 0.329197,0.01985 0.01941,0.012 0.0305,0.08018 0.02465,0.151513 l -0.01064,0.1297 -0.06083,0.01154 c -0.03346,0.0063 -0.08786,-0.01293 -0.1209,-0.04283 -0.03304,-0.0299 -0.110694,-0.06244 -0.172569,-0.0723 -0.125211,-0.01997 -0.310678,0.03657 -0.280444,0.08549 0.0107,0.01731 0.09038,0.04076 0.177057,0.0521 0.222962,0.02918 0.43609,0.111781 0.474739,0.183997 0.148424,0.277333 -0.246141,0.518152 -0.650566,0.397066 z m 1.272203,-0.01099 c -0.245818,-0.09141 -0.364731,-0.277006 -0.32983,-0.514796 l 0.01604,-0.109269 0.104685,-0.110998 0.104685,-0.110998 0.132981,-0.03692 c 0.19402,-0.05386 0.284717,-0.04624 0.449058,0.03773 0.17275,0.08827 0.255604,0.194497 0.286074,0.366771 l 0.02211,0.125036 h -0.437168 c -0.240443,0 -0.437168,0.01268 -0.437168,0.02818 0,0.05192 0.11564,0.130892 0.226015,0.154358 l 0.109315,0.02324 0.235212,-0.04204 0.235211,-0.04203 0.03007,0.04751 c 0.01654,0.02613 0.0303,0.05953 0.03058,0.07422 9.42e-4,0.04933 -0.222322,0.120423 -0.43692,0.139129 l -0.212756,0.01855 z m 0.51164,-0.54833 c 0,-0.0155 -0.03158,-0.05676 -0.07019,-0.09169 l -0.07019,-0.06352 h -0.159713 -0.159713 l -0.07019,0.06352 c -0.0386,0.03494 -0.07019,0.0762 -0.07019,0.09169 0,0.0155 0.135038,0.02818 0.300085,0.02818 0.165048,0 0.300086,-0.01268 0.300086,-0.02818 z m 0.834257,0.559685 c -0.04547,-0.01918 -0.109237,-0.05892 -0.141707,-0.08831 l -0.05904,-0.05343 v -0.262622 -0.262622 l -0.05835,-0.01803 c -0.115779,-0.03578 -0.158379,-0.07161 -0.158379,-0.133226 v -0.06272 l 0.100029,-0.01715 0.100028,-0.01715 0.01082,-0.132789 c 0.01215,-0.149184 0.05698,-0.194339 0.145762,-0.146826 l 0.06015,0.03219 v 0.132198 0.132198 h 0.229317 0.229318 l 0.04151,0.05002 0.04151,0.05001 -0.04151,0.05001 -0.04151,0.05001 H 36.460407 36.23109 v 0.248561 0.248561 l 0.116947,0.02194 0.116947,0.02194 0.170533,-0.05578 c 0.193011,-0.06313 0.26243,-0.05076 0.26243,0.04677 v 0.06729 l -0.121396,0.05072 c -0.160267,0.06696 -0.441376,0.09185 -0.544776,0.04823 z m 5.884331,-0.002 c -0.07335,-0.01764 -0.165414,-0.02411 -0.204578,-0.01436 l -0.07121,0.01771 -0.0392,-0.04723 -0.03919,-0.04723 0.01037,-0.144172 0.01037,-0.144171 0.07009,-0.01001 0.07009,-0.01001 0.05486,0.08372 0.05486,0.08372 0.129865,0.03497 0.129866,0.03497 0.128631,-0.04202 0.12863,-0.04202 0.0099,-0.06958 c 0.01407,-0.09846 -0.05008,-0.139064 -0.303744,-0.192235 -0.275739,-0.0578 -0.372982,-0.119846 -0.42237,-0.269492 l -0.03859,-0.116934 0.04395,-0.08964 c 0.02417,-0.0493 0.0835,-0.118898 0.131836,-0.154656 0.10663,-0.07888 0.354919,-0.111726 0.489628,-0.06477 l 0.0987,0.03441 0.03476,-0.03476 c 0.01912,-0.01912 0.05903,-0.02545 0.08869,-0.01406 l 0.05393,0.0207 -0.01001,0.192125 -0.01001,0.192124 -0.07497,0.01065 -0.07497,0.01065 -0.0318,-0.08364 c -0.01749,-0.046 -0.06154,-0.09956 -0.09789,-0.119012 -0.09524,-0.05097 -0.244074,-0.04351 -0.329797,0.01654 -0.0785,0.05498 -0.09866,0.162381 -0.03758,0.200132 0.02009,0.01242 0.150729,0.05111 0.290313,0.08599 l 0.253789,0.06342 0.07473,0.0702 c 0.0411,0.03861 0.08396,0.112238 0.09524,0.163612 l 0.02051,0.09341 -0.05269,0.101897 c -0.02898,0.05604 -0.0937,0.122885 -0.143822,0.148534 -0.130088,0.06657 -0.336321,0.08779 -0.491243,0.05053 z m 1.138411,0.0048 c -0.0524,-0.01664 -0.123672,-0.05596 -0.158379,-0.08737 l -0.0631,-0.05711 V 23.840175 23.73319 l 0.08782,-0.08782 c 0.107669,-0.107669 0.313752,-0.166939 0.505359,-0.145342 l 0.143749,0.0162 -0.01003,-0.05087 c -0.0055,-0.02798 -0.03526,-0.06676 -0.0661,-0.08618 l -0.05607,-0.03531 -0.210676,0.03531 c -0.115871,0.01942 -0.229431,0.02834 -0.252354,0.01983 -0.06154,-0.02285 -0.05061,-0.134598 0.01667,-0.170509 0.03209,-0.01713 0.143382,-0.04174 0.24731,-0.05468 l 0.188961,-0.02354 0.116794,0.03855 c 0.06424,0.0212 0.136749,0.06251 0.161139,0.09179 l 0.04435,0.05325 0.01667,0.270141 0.01667,0.27014 0.0722,0.01028 c 0.08832,0.01258 0.126407,0.09791 0.07263,0.162714 l -0.03971,0.04785 -0.219273,-0.0068 c -0.120601,-0.0037 -0.286793,0.0023 -0.369317,0.01346 -0.08252,0.01114 -0.192917,0.0066 -0.245318,-0.01001 z m 0.427619,-0.239742 0.08444,-0.03847 v -0.06133 -0.06133 h -0.196363 -0.196364 l -0.07872,0.06666 -0.07872,0.06666 0.06668,0.05237 0.06669,0.05237 0.123951,-0.01922 c 0.06817,-0.01057 0.16195,-0.03654 0.208393,-0.0577 z m 2.301743,0.243033 c -0.160772,-0.04151 -0.249235,-0.10112 -0.318417,-0.214581 l -0.06478,-0.106237 -1.25e-4,-0.126691 c -6.8e-5,-0.06968 0.02202,-0.169511 0.04908,-0.221845 0.06229,-0.120459 0.231152,-0.225689 0.407378,-0.253869 l 0.136747,-0.02187 0.128456,0.04116 c 0.2147,0.0688 0.378527,0.262731 0.378527,0.44808 v 0.08501 H 46.26451 45.828274 l 0.01293,0.04168 c 0.0071,0.02292 0.07067,0.07027 0.141245,0.105209 l 0.128315,0.06353 0.259085,-0.04208 c 0.142497,-0.02314 0.275243,-0.03209 0.294991,-0.01988 0.06959,0.04301 0.03466,0.122206 -0.07389,0.167563 -0.13912,0.05813 -0.4763,0.08857 -0.607074,0.05481 z m 0.461713,-0.588794 c -0.02669,-0.06954 -0.18758,-0.148837 -0.301679,-0.148685 -0.10174,1.36e-4 -0.310077,0.111736 -0.310077,0.1661 v 0.03383 h 0.315711 0.31571 z m -28.681396,0.555221 c -0.02473,-0.01567 -0.03956,-0.0567 -0.03296,-0.09118 l 0.012,-0.06269 0.116321,-0.01667 0.116322,-0.01667 0.0098,-0.241736 0.0098,-0.241736 h -0.08074 c -0.0444,0 -0.09941,-0.02251 -0.122243,-0.05001 l -0.04151,-0.05001 0.04151,-0.05001 0.04151,-0.05002 h 0.179303 0.179303 v 0.05002 c 0,0.06453 0.0097,0.06342 0.17239,-0.01957 l 0.13639,-0.06958 0.107775,0.02022 c 0.05928,0.01112 0.134162,0.04937 0.166412,0.08501 l 0.05863,0.06479 -0.02113,0.05506 -0.02113,0.05506 -0.07461,-0.01779 c -0.04103,-0.0098 -0.104628,-0.02727 -0.141321,-0.03887 l -0.06671,-0.02108 -0.15835,0.104887 -0.158351,0.104887 v 0.161981 0.161981 l 0.208058,0.0099 0.208058,0.0099 0.01195,0.06269 c 0.0066,0.03448 -0.0083,0.07551 -0.03301,0.09118 -0.02473,0.01567 -0.210007,0.02849 -0.411731,0.02849 -0.201725,0 -0.387003,-0.01282 -0.411731,-0.02849 z m 12.90369,0 c -0.02473,-0.01567 -0.03958,-0.0567 -0.033,-0.09118 l 0.01196,-0.06269 0.07468,-0.01066 0.07468,-0.01065 V 23.490696 23.09522 l -0.07502,-0.01065 -0.07502,-0.01065 V 22.99056 22.9072 l 0.333429,-0.01035 0.333429,-0.01035 0.123247,0.03616 c 0.06779,0.01989 0.15406,0.07533 0.191721,0.123209 l 0.06847,0.08705 v 0.125911 0.125911 l -0.102908,0.08659 -0.102907,0.08659 0.139355,0.166445 0.139355,0.166444 h 0.0608 c 0.07412,0 0.101128,0.06307 0.06068,0.141708 l -0.03001,0.05835 -0.123863,-6e-5 -0.123862,-6e-5 -0.09423,-0.149154 c -0.05183,-0.08203 -0.139253,-0.187038 -0.19428,-0.23334 l -0.10005,-0.08419 h -0.116154 -0.116155 l 0.01035,0.125035 0.01035,0.125036 0.08336,0.0117 c 0.10379,0.01456 0.138441,0.06657 0.09653,0.144885 l -0.03219,0.06015 -0.223892,-5.11e-4 c -0.12314,-2.81e-4 -0.244122,-0.01333 -0.26885,-0.029 z m 0.740663,-0.70645 c 0.04832,-0.03801 0.08785,-0.08302 0.08785,-0.100029 0,-0.01701 -0.03001,-0.06093 -0.06669,-0.09761 l -0.06669,-0.06668 H 31.179645 30.99626 v 0.166714 0.166714 h 0.162217 0.162218 z m 13.332858,0.694284 c -0.01849,-0.02292 -0.102453,-0.179372 -0.18658,-0.347665 L 44.40187,23.39559 44.32596,23.38482 44.25005,23.37405 v -0.08336 -0.08336 l 0.236528,-0.0097 0.236528,-0.0097 0.04263,0.05137 0.04263,0.05137 -0.04151,0.05001 c -0.02283,0.02751 -0.06243,0.05001 -0.088,0.05001 h -0.04649 l 0.08126,0.158379 c 0.04469,0.08711 0.101448,0.185234 0.126122,0.218057 l 0.04486,0.05968 0.107529,-0.218057 0.107529,-0.218058 h -0.04562 c -0.02509,0 -0.0643,-0.02251 -0.08713,-0.05001 l -0.04151,-0.05001 0.04263,-0.05137 0.04263,-0.05137 0.236528,0.0097 0.236528,0.0097 v 0.08336 0.08336 l -0.07357,0.01046 -0.07357,0.01046 -0.18665,0.347971 -0.186649,0.347971 h -0.09413 c -0.05177,0 -0.109262,-0.01876 -0.127754,-0.04168 z"
         id="path4" />
    </g>
  </g>
  <g
     inkscape:groupmode="layer"
     id="layer2"
     inkscape:label="components">
    <circle
       r="0.75840974"
       cy="42.75716"
       cx="12.122452"
       id="circle4956-3"
       style="display:inline;vector-effect:none;fill:#00ff00;fill-opacity:1;fill-rule:evenodd;stroke:none;stroke-width:0.189603;stroke-linecap:butt;stroke-linejoin:miter;stroke-miterlimit:4;stroke-dasharray:none;stroke-dashoffset:0;stroke-opacity:1;paint-order:normal"
       inkscape:label="1" />
    <circle
       r="0.75840974"
       cy="42.75716"
       cx="24.459013"
       id="circle1"
       style="display:inline;vector-effect:none;fill:#00ff00;fill-opacity:1;fill-rule:evenodd;stroke:none;stroke-width:0.189603;stroke-linecap:butt;stroke-linejoin:miter;stroke-miterlimit:4;stroke-dasharray:none;stroke-dashoffset:0;stroke-opacity:1;paint-order:normal"
       inkscape:label="2" />
    <circle
       r="0.75840974"
       cy="42.757874"
       cx="36.794044"
       id="circle2"
       style="display:inline;vector-effect:none;fill:#00ff00;fill-opacity:1;fill-rule:evenodd;stroke:none;stroke-width:0.189603;stroke-linecap:butt;stroke-linejoin:miter;stroke-miterlimit:4;stroke-dasharray:none;stroke-dashoffset:0;stroke-opacity:1;paint-order:normal"
       inkscape:label="3" />
    <circle
       r="0.75840974"
       cy="42.758854"
       cx="49.131947"
       id="circle3"
       style="display:inline;vector-effect:none;fill:#00ff00;fill-opacity:1;fill-rule:evenodd;stroke:none;stroke-width:0.189603;stroke-linecap:butt;stroke-linejoin:miter;stroke-miterlimit:4;stroke-dasharray:none;stroke-dashoffset:0;stroke-opacity:1;paint-order:normal"
       inkscape:label="4" />
    <circle
       r="0.75840974"
       cy="55.107536"
       cx="49.134308"
       id="circle4"
       style="display:inline;vector-effect:none;fill:#00ff00;fill-opacity:1;fill-rule:evenodd;stroke:none;stroke-width:0.189603;stroke-linecap:butt;stroke-linejoin:miter;stroke-miterlimit:4;stroke-dasharray:none;stroke-dashoffset:0;stroke-opacity:1;paint-order:normal"
       inkscape:label="8" />
    <circle
       r="0.75840974"
       cy="55.10955"
       cx="36.796513"
       id="circle5"
       style="display:inline;vector-effect:none;fill:#00ff00;fill-opacity:1;fill-rule:evenodd;stroke:none;stroke-width:0.189603;stroke-linecap:butt;stroke-linejoin:miter;stroke-miterlimit:4;stroke-dasharray:none;stroke-dashoffset:0;stroke-opacity:1;paint-order:normal"
       inkscape:label="7" />
    <circle
       r="0.75840974"
       cy="55.111908"
       cx="24.458248"
       id="circle6"
       style="display:inline;vector-effect:none;fill:#00ff00;fill-opacity:1;fill-rule:evenodd;stroke:none;stroke-width:0.189603;stroke-linecap:butt;stroke-linejoin:miter;stroke-miterlimit:4;stroke-dasharray:none;stroke-dashoffset:0;stroke-opacity:1;paint-order:normal"
       inkscape:label="6" />
    <circle
       r="0.75840974"
       cy="55.111771"
       cx="12.119984"
       id="circle7"
       style="display:inline;vector-effect:none;fill:#00ff00;fill-opacity:1;fill-rule:evenodd;stroke:none;stroke-width:0.189603;stroke-linecap:butt;stroke-linejoin:miter;stroke-miterlimit:4;stroke-dasharray:none;stroke-dashoffset:0;stroke-opacity:1;paint-order:normal"
       inkscape:label="5" />
    <circle
       r="0.75840974"
       cy="67.461647"
       cx="12.121355"
       id="circle8"
       style="display:inline;vector-effect:none;fill:#00ff00;fill-opacity:1;fill-rule:evenodd;stroke:none;stroke-width:0.189603;stroke-linecap:butt;stroke-linejoin:miter;stroke-miterlimit:4;stroke-dasharray:none;stroke-dashoffset:0;stroke-opacity:1;paint-order:normal"
       inkscape:label="9" />
    <circle
       r="0.75840974"
       cy="67.460876"
       cx="24.458866"
       id="circle9"
       style="display:inline;vector-effect:none;fill:#00ff00;fill-opacity:1;fill-rule:evenodd;stroke:none;stroke-width:0.189603;stroke-linecap:butt;stroke-linejoin:miter;stroke-miterlimit:4;stroke-dasharray:none;stroke-dashoffset:0;stroke-opacity:1;paint-order:normal"
       inkscape:label="10" />
    <circle
       r="0.75840974"
       cy="67.460876"
       cx="36.794945"
       id="circle10"
       style="display:inline;vector-effect:none;fill:#00ff00;fill-opacity:1;fill-rule:evenodd;stroke:none;stroke-width:0.189603;stroke-linecap:butt;stroke-linejoin:miter;stroke-miterlimit:4;stroke-dasharray:none;stroke-dashoffset:0;stroke-opacity:1;paint-order:normal"
       inkscape:label="11" />
    <circle
       r="0.75840974"
       cy="67.461838"
       cx="49.13184"
       id="circle11"
       style="display:inline;vector-effect:none;fill:#00ff00;fill-opacity:1;fill-rule:evenodd;stroke:none;stroke-width:0.189603;stroke-linecap:butt;stroke-linejoin:miter;stroke-miterlimit:4;stroke-dasharray:none;stroke-dashoffset:0;stroke-opacity:1;paint-order:normal"
       inkscape:label="12" />
    <circle
       r="0.75840974"
       cy="79.803749"
       cx="49.133446"
       id="circle12"
       style="display:inline;vector-effect:none;fill:#00ff00;fill-opacity:1;fill-rule:evenodd;stroke:none;stroke-width:0.189603;stroke-linecap:butt;stroke-linejoin:miter;stroke-miterlimit:4;stroke-dasharray:none;stroke-dashoffset:0;stroke-opacity:1;paint-order:normal"
       inkscape:label="16" />
    <circle
       r="0.75840974"
       cy="79.804253"
       cx="36.796043"
       id="circle13"
       style="display:inline;vector-effect:none;fill:#00ff00;fill-opacity:1;fill-rule:evenodd;stroke:none;stroke-width:0.189603;stroke-linecap:butt;stroke-linejoin:miter;stroke-miterlimit:4;stroke-dasharray:none;stroke-dashoffset:0;stroke-opacity:1;paint-order:normal"
       inkscape:label="15" />
    <circle
       r="0.75840974"
       cy="79.804253"
       cx="24.4582"
       id="circle14"
       style="display:inline;vector-effect:none;fill:#00ff00;fill-opacity:1;fill-rule:evenodd;stroke:none;stroke-width:0.189603;stroke-linecap:butt;stroke-linejoin:miter;stroke-miterlimit:4;stroke-dasharray:none;stroke-dashoffset:0;stroke-opacity:1;paint-order:normal"
       inkscape:label="14" />
    <circle
       r="0.75840974"
       cy="79.804703"
       cx="12.121687"
       id="circle15"
       style="display:inline;vector-effect:none;fill:#00ff00;fill-opacity:1;fill-rule:evenodd;stroke:none;stroke-width:0.189603;stroke-linecap:butt;stroke-linejoin:miter;stroke-miterlimit:4;stroke-dasharray:none;stroke-dashoffset:0;stroke-opacity:1;paint-order:normal"
       inkscape:label="13" />
    <circle
       r="0.75840974"
       cy="19.138338"
       cx="16.947079"
       id="circle16"
       style="display:inline;vector-effect:none;fill:#00ff00;fill-opacity:1;fill-rule:evenodd;stroke:none;stroke-width:0.189603;stroke-linecap:butt;stroke-linejoin:miter;stroke-miterlimit:4;stroke-dasharray:none;stroke-dashoffset:0;stroke-opacity:1;paint-order:normal"
       inkscape:label="start" />
    <circle
       r="0.75840974"
       cy="19.14341"
       cx="30.625771"
       id="circle17"
       style="display:inline;vector-effect:none;fill:#00ff00;fill-opacity:1;fill-rule:evenodd;stroke:none;stroke-width:0.189603;stroke-linecap:butt;stroke-linejoin:miter;stroke-miterlimit:4;stroke-dasharray:none;stroke-dashoffset:0;stroke-opacity:1;paint-order:normal"
       inkscape:label="stop" />
    <circle
       r="0.75840974"
       cy="19.14085"
       cx="44.308132"
       id="circle18"
       style="display:inline;vector-effect:none;fill:#00ff00;fill-opacity:1;fill-rule:evenodd;stroke:none;stroke-width:0.189603;stroke-linecap:butt;stroke-linejoin:miter;stroke-miterlimit:4;stroke-dasharray:none;stroke-dashoffset:0;stroke-opacity:1;paint-order:normal"
       inkscape:label="save" />
    <circle
       r="0.75840974"
       cy="101.44386"
       cx="30.627499"
       id="circle19"
       style="display:inline;vector-effect:none;fill:#0000ff;fill-opacity:1;fill-rule:evenodd;stroke:none;stroke-width:0.189603;stroke-linecap:butt;stroke-linejoin:miter;stroke-miterlimit:4;stroke-dasharray:none;stroke-dashoffset:0;stroke-opacity:1;paint-order:normal"
       inkscape:label="frame_start" />
    <circle
       r="0.16242489"
       cy="98.447304"
       cx="34.140736"
       id="circle20"
       style="display:inline;vector-effect:none;fill:#ff00ff;fill-opacity:1;fill-rule:evenodd;stroke:none;stroke-width:0.0406063;stroke-linecap:butt;stroke-linejoin:miter;stroke-miterlimit:4;stroke-dasharray:none;stroke-dashoffset:0;stroke-opacity:1;paint-order:normal"
       inkscape:label="frame_indicator" />
  </g>
</svg>
