<?xml version="1.0" encoding="UTF-8" standalone="no"?>
<!-- Created with Inkscape (http://www.inkscape.org/) -->

<svg
   width="172.72mm"
   height="128.5mm"
   viewBox="0 0 172.72 128.5"
   version="1.1"
   id="svg1"
   xml:space="preserve"
   inkscape:version="1.3 (0e150ed, 2023-07-21)"
   sodipodi:docname="ToKeyframes.svg"
   xmlns:inkscape="http://www.inkscape.org/namespaces/inkscape"
   xmlns:sodipodi="http://sodipodi.sourceforge.net/DTD/sodipodi-0.dtd"
   xmlns="http://www.w3.org/2000/svg"
   xmlns:svg="http://www.w3.org/2000/svg"><sodipodi:namedview
     id="namedview1"
     pagecolor="#ffffff"
     bordercolor="#000000"
     borderopacity="0.25"
     inkscape:showpageshadow="2"
     inkscape:pageopacity="0.0"
     inkscape:pagecheckerboard="0"
     inkscape:deskcolor="#d1d1d1"
     inkscape:document-units="mm"
     inkscape:zoom="0.99061891"
     inkscape:cx="371.98967"
     inkscape:cy="165.55307"
     inkscape:window-width="1920"
     inkscape:window-height="1016"
     inkscape:window-x="1600"
     inkscape:window-y="27"
     inkscape:window-maximized="1"
     inkscape:current-layer="layer2"
     showgrid="false" /><defs
     id="defs1" /><g
     inkscape:label="Layer 1"
     inkscape:groupmode="layer"
     id="layer1"><path
       style="display:none;fill:#000000"
       d="m 128.41552,105.61109 -3.41753,-3.41842 3.46252,-3.463396 3.46252,-3.463396 3.44134,3.440474 3.44134,3.440478 -3.44047,3.44134 c -1.89226,1.89274 -3.4611,3.44134 -3.48633,3.44134 -0.0252,0 -1.58375,-1.53829 -3.46339,-3.41842 z m -23.16441,-2.0242 -3.46267,-3.46355 3.44061,-3.440612 3.44062,-3.440615 3.46354,3.463542 3.46354,3.463545 -3.44149,3.44061 -3.44148,3.44062 z m -22.894404,-4.542904 -3.417677,-3.418566 3.440611,-3.440611 3.440611,-3.440611 3.44061,3.440611 3.440611,3.440611 -3.417677,3.418566 c -1.879723,1.880214 -3.438318,3.418564 -3.463544,3.418564 -0.02523,0 -1.583822,-1.53835 -3.463545,-3.418564 z m -69.267917,-2.248959 -3.4176772,-3.418565 3.4406112,-3.440611 3.44061,-3.440612 3.440611,3.440612 3.440611,3.440611 -3.417677,3.418565 c -1.879723,1.880211 -3.438318,3.418563 -3.463545,3.418563 -0.02523,0 -1.583821,-1.538352 -3.463544,-3.418563 z m 46.328542,-2.069042 -3.417677,-3.418565 3.440611,-3.440611 3.44061,-3.440611 3.440611,3.440611 3.440611,3.440611 -3.417677,3.418565 c -1.879723,1.880211 -3.438318,3.418566 -3.463545,3.418566 -0.02523,0 -1.583821,-1.538355 -3.463544,-3.418566 z m -23.254081,-1.034372 -3.462812,-3.463689 3.463396,-3.463397 3.463395,-3.463396 3.462813,3.463689 3.462813,3.46369 -3.463396,3.463396 -3.463396,3.463396 z m 120.76906,-4.722816 -3.41753,-3.41842 3.46252,-3.463396 3.46252,-3.463396 3.44134,3.440474 3.44135,3.440474 -3.44047,3.441342 c -1.89226,1.892738 -3.46111,3.441342 -3.48634,3.441342 -0.0252,0 -1.58375,-1.538289 -3.46339,-3.41842 z m -27.91001,-0.382753 -3.44047,-3.441344 3.44134,-3.440474 3.44135,-3.440474 3.44047,3.441344 3.44047,3.441345 -3.44134,3.440474 -3.44134,3.440474 z m -27.7742,-3.755331 -3.41753,-3.41842 3.46252,-3.463396 3.46252,-3.463396 3.44134,3.440474 3.44135,3.440474 -3.44047,3.441342 c -1.89226,1.892738 -3.46111,3.441342 -3.48634,3.441342 -0.0252,0 -1.58375,-1.538289 -3.46339,-3.41842 z m 46.73336,-5.982227 -3.46281,-3.463689 3.46339,-3.463396 3.4634,-3.463396 3.46281,3.463689 3.46281,3.463689 -3.46339,3.463396 -3.4634,3.463397 z m -27.95499,-0.427734 -3.44047,-3.441345 3.44134,-3.440474 3.44134,-3.440474 3.44048,3.441345 3.44047,3.441344 -3.44134,3.440474 -3.44135,3.440474 z m -46.845368,-3.575415 -3.417532,-3.41842 3.462663,-3.463539 3.462663,-3.46354 3.463393,3.463393 3.463393,3.463393 -3.417678,3.418567 c -1.879723,1.880211 -3.458559,3.418566 -3.508524,3.418566 -0.04997,0 -1.628736,-1.538289 -3.508378,-3.41842 z M 92.297108,74.71026 88.83444,71.246715 92.275055,67.8061 l 3.440614,-3.440615 3.463542,3.463542 3.463539,3.463542 -3.441486,3.440618 -3.441488,3.440617 z m -65.444548,-2.473715 -3.417532,-3.418419 3.46252,-3.463397 3.462519,-3.463396 3.441344,3.440474 3.441345,3.440474 -3.440471,3.441342 c -1.892259,1.892738 -3.461109,3.441342 -3.486332,3.441342 -0.02522,0 -1.583751,-1.538289 -3.463393,-3.41842 z m 23.276427,-0.472567 -3.440617,-3.441488 3.463544,-3.462668 3.463544,-3.462669 3.440615,3.440615 3.440615,3.440615 -3.463542,3.463542 -3.463541,3.463542 z m 90.048293,-9.175751 -3.44062,-3.441488 3.46355,-3.462668 3.46354,-3.462669 3.44062,3.440615 3.44061,3.440615 -3.46354,3.463542 -3.46354,3.463542 z m -27.86445,-2.496203 -3.41768,-3.418566 3.44062,-3.440611 3.44061,-3.440611 3.44061,3.440611 3.44061,3.440611 -3.41768,3.418566 c -1.87972,1.880211 -3.43832,3.418565 -3.46354,3.418565 -0.0252,0 -1.58383,-1.538354 -3.46355,-3.418565 z m -29.978906,-5.330319 -3.440471,-3.441342 3.463396,-3.46252 3.463396,-3.462519 3.418419,3.417532 c 1.880131,1.879642 3.41842,3.458412 3.41842,3.508378 0,0.089 -6.749276,6.881813 -6.83771,6.881813 -0.02474,0 -1.593191,-1.548604 -3.48545,-3.441342 z m 74.283686,-1.641155 -3.46266,-3.46354 3.41753,-3.41842 c 1.87964,-1.88013 3.45841,-3.418419 3.50838,-3.418419 0.05,0 1.6288,1.538354 3.50852,3.418566 l 3.41768,3.418566 -3.46339,3.463394 -3.4634,3.463393 z M 13.066007,52.512747 9.6255362,49.071405 l 3.4633988,-3.462523 3.463398,-3.462523 3.463399,3.462523 3.463399,3.462523 -3.440471,3.441342 c -1.892259,1.892738 -3.461106,3.441341 -3.486327,3.441341 -0.02522,0 -1.594067,-1.548603 -3.486326,-3.441341 z m 118.115293,-0.08996 -3.44047,-3.441342 3.46339,-3.462519 3.4634,-3.46252 3.41842,3.417532 c 1.88013,1.879642 3.41842,3.458413 3.41842,3.508378 0,0.089 -6.74928,6.881813 -6.83771,6.881813 -0.0247,0 -1.59319,-1.548604 -3.48545,-3.441342 z m -71.763823,-1.956161 -3.417532,-3.41842 3.462519,-3.463396 3.46252,-3.463396 3.441344,3.440474 3.441345,3.440474 -3.440471,3.441342 c -1.892259,1.892738 -3.461109,3.441342 -3.486332,3.441342 -0.02522,0 -1.583751,-1.538289 -3.463393,-3.41842 z m 43.944503,-0.494911 -3.462665,-3.463545 3.440615,-3.440615 3.44061,-3.440614 3.46355,3.463541 3.46354,3.463542 -3.44149,3.440618 -3.44149,3.440617 z m -67.176678,-0.607509 -3.440474,-3.441344 3.441344,-3.440474 3.441345,-3.440474 3.440474,3.441344 3.440473,3.441345 -3.441344,3.440474 -3.441345,3.440474 z m 113.820068,-22.106978 -3.41767,-3.418565 3.44061,-3.440612 3.44061,-3.440611 3.44061,3.440611 3.44061,3.440612 -3.41768,3.418565 c -1.87972,1.880211 -3.43832,3.418565 -3.46354,3.418565 -0.0252,0 -1.58382,-1.538354 -3.46355,-3.418565 z m -62.543821,-4.70061 -3.440471,-3.441342 3.441345,-3.440474 3.441344,-3.440474 3.46252,3.463396 3.462519,3.463396 -3.417532,3.41842 c -1.879642,1.880131 -3.438169,3.41842 -3.463393,3.41842 -0.02522,0 -1.594073,-1.548604 -3.486332,-3.441342 z M 25.120427,16.889245 21.679953,13.4479 l 3.441344,-3.440474 3.441345,-3.4404736 3.440473,3.4413446 3.440474,3.441345 -3.441344,3.440474 -3.441345,3.440474 z m 31.418237,-0.157143 -3.417677,-3.418565 3.440611,-3.4406115 3.440611,-3.4406111 3.440611,3.4406111 3.44061,3.4406115 -3.417677,3.418565 c -1.879722,1.880211 -3.438317,3.418566 -3.463544,3.418566 -0.02523,0 -1.583822,-1.538355 -3.463545,-3.418566 z"
       id="path1" /></g><g
     inkscape:groupmode="layer"
     id="layer2"
     inkscape:label="components"
     style="display:inline"><circle
       style="fill:#00ff00;stroke-width:0.332296"
       id="path2"
       cx="28.533627"
       cy="13.423722"
       r="4.8027382"
       inkscape:label="START" /><circle
       style="display:inline;fill:#00ff00;stroke-width:0.332296"
       id="path2-7"
       cx="59.935825"
       cy="13.354002"
       r="4.8027382"
       inkscape:label="ABORT" /><circle
       style="display:inline;fill:#00ff00;stroke-width:0.332296"
       id="path2-5"
       cx="90.878227"
       cy="19.108688"
       r="4.8027382"
       inkscape:label="SAVE" /><circle
       style="display:inline;fill:#00ff00;stroke-width:0.332296"
       id="path2-4"
       cx="16.501802"
       cy="49.044254"
       r="4.8027382"
       inkscape:label="INPUT_1" /><circle
       style="display:inline;fill:#00ff00;stroke-width:0.332296"
       id="path2-8"
       cx="39.611317"
       cy="45.974552"
       r="4.8027382"
       inkscape:label="INPUT_2" /><circle
       style="display:inline;fill:#00ff00;stroke-width:0.332296"
       id="path2-43"
       cx="62.870506"
       cy="47.059338"
       r="4.8027382"
       inkscape:label="INPUT_3" /><circle
       style="display:inline;fill:#00ff00;stroke-width:0.332296"
       id="path2-2"
       cx="85.814796"
       cy="51.288097"
       r="4.8027382"
       inkscape:label="INPUT_4" /><circle
       style="display:inline;fill:#00ff00;stroke-width:0.332296"
       id="path2-9"
       cx="106.82762"
       cy="46.561016"
       r="4.8027382"
       inkscape:label="WAVE_I" /><circle
       style="display:inline;fill:#00ff00;stroke-width:0.332296"
       id="path2-49"
       cx="115.71576"
       cy="56.700161"
       r="4.8027382"
       inkscape:label="VOCT_I" /><circle
       style="display:inline;fill:#00ff00;stroke-width:0.332296"
       id="path2-87"
       cx="95.721497"
       cy="71.24218"
       r="4.8027382"
       inkscape:label="WAVE_III" /><circle
       style="display:inline;fill:#00ff00;stroke-width:0.332296"
       id="path2-72"
       cx="104.72677"
       cy="81.413872"
       r="4.8027382"
       inkscape:label="VOCT_III" /><circle
       style="display:inline;fill:#00ff00;stroke-width:0.332296"
       id="path2-0"
       cx="85.809479"
       cy="95.590401"
       r="4.8027382"
       inkscape:label="INPUT_11" /><circle
       style="display:inline;fill:#00ff00;stroke-width:0.332296"
       id="path2-94"
       cx="108.67551"
       cy="100.10837"
       r="4.8027382"
       inkscape:label="INPUT_12" /><circle
       style="display:inline;fill:#00ff00;stroke-width:0.332296"
       id="path2-1"
       cx="131.84399"
       cy="102.17963"
       r="4.8027382"
       inkscape:label="INPUT_13" /><circle
       style="display:inline;fill:#00ff00;stroke-width:0.332296"
       id="path2-15"
       cx="132.46127"
       cy="85.20295"
       r="4.8027382"
       inkscape:label="VOCT_IV" /><circle
       style="display:inline;fill:#00ff00;stroke-width:0.332296"
       id="path2-6"
       cx="123.479"
       cy="74.973625"
       r="4.8027382"
       inkscape:label="WAVE_IV" /><circle
       style="display:inline;fill:#00ff00;stroke-width:0.332296"
       id="path2-56"
       cx="134.55612"
       cy="49.002811"
       r="4.8027382"
       inkscape:label="WAVE_II" /><circle
       style="display:inline;fill:#00ff00;stroke-width:0.332296"
       id="path2-81"
       cx="143.60851"
       cy="59.145184"
       r="4.8027382"
       inkscape:label="VOCT_II" /><circle
       style="display:inline;fill:#00ff00;stroke-width:0.332296"
       id="path2-90"
       cx="151.44864"
       cy="75.380089"
       r="4.8027382"
       inkscape:label="WAVE_V" /><circle
       style="display:inline;fill:#00ff00;stroke-width:0.332296"
       id="path2-09"
       cx="160.42307"
       cy="85.544861"
       r="4.8027382"
       inkscape:label="VOCT_V" /><circle
       style="display:inline;fill:#ff0000;stroke-width:0.332296"
       id="path2-561"
       cx="160.07988"
       cy="49.693996"
       r="4.8027382"
       inkscape:label="WAVE_SAMPLE_RATE" /><circle
       style="display:inline;fill:#00ff00;stroke-width:0.332296"
       id="path2-84"
       cx="39.607643"
       cy="90.195694"
       r="4.8027382"
       inkscape:label="INPUT_9" /><circle
       style="display:inline;fill:#00ff00;stroke-width:0.332296"
       id="path2-3"
       cx="16.531853"
       cy="93.387711"
       r="4.8027382"
       inkscape:label="INPUT_8" /><circle
       style="display:inline;fill:#00ff00;stroke-width:0.332296"
       id="path2-44"
       cx="30.335312"
       cy="68.777443"
       r="4.8027382"
       inkscape:label="INPUT_5" /><circle
       style="display:inline;fill:#00ff00;stroke-width:0.332296"
       id="path2-17"
       cx="53.596325"
       cy="68.292198"
       r="4.8027382"
       inkscape:label="INPUT_6" /><circle
       style="display:inline;fill:#00ff00;stroke-width:0.332296"
       id="path2-21"
       cx="76.645309"
       cy="71.479286"
       r="4.8027382"
       inkscape:label="INPUT_7" /><circle
       style="display:inline;fill:#00ff00;stroke-width:0.332296"
       id="path2-74"
       cx="62.83683"
       cy="91.320328"
       r="4.8027382"
       inkscape:label="INPUT_10" /><circle
       style="display:inline;fill:#ff0000;stroke-width:0.332296"
       id="path2-97"
       cx="153.47888"
       cy="23.874163"
       r="4.8027382"
       inkscape:label="FRAME_RATE" /></g></svg>
